<svg version="1.1" viewBox="0.0 0.0 600.0 371.0" fill="none" stroke="none" stroke-linecap="square" stroke-miterlimit="10" width="600" height="371" xmlns:xlink="http://www.w3.org/1999/xlink" xmlns="http://www.w3.org/2000/svg"><path fill="#ffffff" d="M0 0L600.0 0L600.0 371.0L0 371.0L0 0Z" fill-rule="nonzero"/><path stroke="#333333" stroke-width="1.0" stroke-linecap="butt" d="M45.5 331.5L581.5 331.5" fill-rule="nonzero"/><path stroke="#cccccc" stroke-width="1.0" stroke-linecap="butt" d="M45.5 264.5L581.5 264.5" fill-rule="nonzero"/><path stroke="#cccccc" stroke-width="1.0" stroke-linecap="butt" d="M45.5 196.5L581.5 196.5" fill-rule="nonzero"/><path stroke="#cccccc" stroke-width="1.0" stroke-linecap="butt" d="M45.5 129.5L581.5 129.5" fill-rule="nonzero"/><path stroke="#cccccc" stroke-width="1.0" stroke-linecap="butt" d="M45.5 62.5L581.5 62.5" fill-rule="nonzero"/><clipPath id="id_0"><path d="M45.55 62.416668L581.45 62.416668L581.45 331.45L45.55 331.45L45.55 62.416668Z" clip-rule="nonzero"/></clipPath><path stroke="#000000" stroke-width="2.0" stroke-linecap="butt" stroke-opacity="0.0" clip-path="url(#id_0)" d="M76.0 331.0L47.0 331.0L47.0 331.0L76.0 331.0Z" fill-rule="nonzero"/><path fill="#4285f4" clip-path="url(#id_0)" d="M76.0 331.0L47.0 331.0L47.0 331.0L76.0 331.0Z" fill-rule="nonzero"/><path stroke="#000000" stroke-width="2.0" stroke-linecap="butt" stroke-opacity="0.0" clip-path="url(#id_0)" d="M108.0 331.0L79.0 331.0L79.0 331.0L108.0 331.0Z" fill-rule="nonzero"/><path fill="#4285f4" clip-path="url(#id_0)" d="M108.0 331.0L79.0 331.0L79.0 331.0L108.0 331.0Z" fill-rule="nonzero"/><path stroke="#000000" stroke-width="2.0" stroke-linecap="butt" stroke-opacity="0.0" clip-path="url(#id_0)" d="M139.0 331.0L110.0 331.0L110.0 331.0L139.0 331.0Z" fill-rule="nonzero"/><path fill="#4285f4" clip-path="url(#id_0)" d="M139.0 331.0L110.0 331.0L110.0 331.0L139.0 331.0Z" fill-rule="nonzero"/><path stroke="#000000" stroke-width="2.0" stroke-linecap="butt" stroke-opacity="0.0" clip-path="url(#id_0)" d="M171.0 331.0L142.0 331.0L142.0 331.0L171.0 331.0Z" fill-rule="nonzero"/><path fill="#4285f4" clip-path="url(#id_0)" d="M171.0 331.0L142.0 331.0L142.0 331.0L171.0 331.0Z" fill-rule="nonzero"/><path stroke="#000000" stroke-width="2.0" stroke-linecap="butt" stroke-opacity="0.0" clip-path="url(#id_0)" d="M202.0 331.0L173.0 331.0L173.0 331.0L202.0 331.0Z" fill-rule="nonzero"/><path fill="#4285f4" clip-path="url(#id_0)" d="M202.0 331.0L173.0 331.0L173.0 331.0L202.0 331.0Z" fill-rule="nonzero"/><path stroke="#000000" stroke-width="2.0" stroke-linecap="butt" stroke-opacity="0.0" clip-path="url(#id_0)" d="M234.0 331.0L205.0 331.0L205.0 331.0L234.0 331.0Z" fill-rule="nonzero"/><path fill="#4285f4" clip-path="url(#id_0)" d="M234.0 331.0L205.0 331.0L205.0 331.0L234.0 331.0Z" fill-rule="nonzero"/><path stroke="#000000" stroke-width="2.0" stroke-linecap="butt" stroke-opacity="0.0" clip-path="url(#id_0)" d="M265.0 331.0L236.0 331.0L236.0 331.0L265.0 331.0Z" fill-rule="nonzero"/><path fill="#4285f4" clip-path="url(#id_0)" d="M265.0 331.0L236.0 331.0L236.0 331.0L265.0 331.0Z" fill-rule="nonzero"/><path stroke="#000000" stroke-width="2.0" stroke-linecap="butt" stroke-opacity="0.0" clip-path="url(#id_0)" d="M297.0 331.0L268.0 331.0L268.0 331.0L297.0 331.0Z" fill-rule="nonzero"/><path fill="#4285f4" clip-path="url(#id_0)" d="M297.0 331.0L268.0 331.0L268.0 331.0L297.0 331.0Z" fill-rule="nonzero"/><path stroke="#000000" stroke-width="2.0" stroke-linecap="butt" stroke-opacity="0.0" clip-path="url(#id_0)" d="M329.0 331.0L300.0 331.0L300.0 330.5C300.0 330.22385 300.22385 330.0 300.5 330.0L328.5 330.0C328.77615 330.0 329.0 330.22385 329.0 330.5Z" fill-rule="nonzero"/><path fill="#4285f4" clip-path="url(#id_0)" d="M329.0 331.0L300.0 331.0L300.0 330.5C300.0 330.22385 300.22385 330.0 300.5 330.0L328.5 330.0C328.77615 330.0 329.0 330.22385 329.0 330.5Z" fill-rule="nonzero"/><path stroke="#000000" stroke-width="2.0" stroke-linecap="butt" stroke-opacity="0.0" clip-path="url(#id_0)" d="M360.0 331.0L331.0 331.0L331.0 330.5C331.0 330.22385 331.22385 330.0 331.5 330.0L359.5 330.0C359.77615 330.0 360.0 330.22385 360.0 330.5Z" fill-rule="nonzero"/><path fill="#4285f4" clip-path="url(#id_0)" d="M360.0 331.0L331.0 331.0L331.0 330.5C331.0 330.22385 331.22385 330.0 331.5 330.0L359.5 330.0C359.77615 330.0 360.0 330.22385 360.0 330.5Z" fill-rule="nonzero"/><path stroke="#000000" stroke-width="2.0" stroke-linecap="butt" stroke-opacity="0.0" clip-path="url(#id_0)" d="M392.0 331.0L363.0 331.0L363.0 330.5C363.0 330.22385 363.22385 330.0 363.5 330.0L391.5 330.0C391.77615 330.0 392.0 330.22385 392.0 330.5Z" fill-rule="nonzero"/><path fill="#4285f4" clip-path="url(#id_0)" d="M392.0 331.0L363.0 331.0L363.0 330.5C363.0 330.22385 363.22385 330.0 363.5 330.0L391.5 330.0C391.77615 330.0 392.0 330.22385 392.0 330.5Z" fill-rule="nonzero"/><path stroke="#000000" stroke-width="2.0" stroke-linecap="butt" stroke-opacity="0.0" clip-path="url(#id_0)" d="M423.0 331.0L394.0 331.0L394.0 315.0C394.0 313.89542 394.89542 313.0 396.0 313.0L421.0 313.0C422.10458 313.0 423.0 313.89542 423.0 315.0Z" fill-rule="nonzero"/><path fill="#4285f4" clip-path="url(#id_0)" d="M423.0 331.0L394.0 331.0L394.0 315.0C394.0 313.89542 394.89542 313.0 396.0 313.0L421.0 313.0C422.10458 313.0 423.0 313.89542 423.0 315.0Z" fill-rule="nonzero"/><path stroke="#000000" stroke-width="2.0" stroke-linecap="butt" stroke-opacity="0.0" clip-path="url(#id_0)" d="M455.0 331.0L426.0 331.0L426.0 311.0C426.0 309.89542 426.89542 309.0 428.0 309.0L453.0 309.0C454.10458 309.0 455.0 309.89542 455.0 311.0Z" fill-rule="nonzero"/><path fill="#4285f4" clip-path="url(#id_0)" d="M455.0 331.0L426.0 331.0L426.0 311.0C426.0 309.89542 426.89542 309.0 428.0 309.0L453.0 309.0C454.10458 309.0 455.0 309.89542 455.0 311.0Z" fill-rule="nonzero"/><path stroke="#000000" stroke-width="2.0" stroke-linecap="butt" stroke-opacity="0.0" clip-path="url(#id_0)" d="M486.0 331.0L457.0 331.0L457.0 327.0C457.0 325.89542 457.89542 325.0 459.0 325.0L484.0 325.0C485.10458 325.0 486.0 325.89542 486.0 327.0Z" fill-rule="nonzero"/><path fill="#4285f4" clip-path="url(#id_0)" d="M486.0 331.0L457.0 331.0L457.0 327.0C457.0 325.89542 457.89542 325.0 459.0 325.0L484.0 325.0C485.10458 325.0 486.0 325.89542 486.0 327.0Z" fill-rule="nonzero"/><path stroke="#000000" stroke-width="2.0" stroke-linecap="butt" stroke-opacity="0.0" clip-path="url(#id_0)" d="M518.0 331.0L489.0 331.0L489.0 325.0C489.0 323.89542 489.89542 323.0 491.0 323.0L516.0 323.0C517.10455 323.0 518.0 323.89542 518.0 325.0Z" fill-rule="nonzero"/><path fill="#4285f4" clip-path="url(#id_0)" d="M518.0 331.0L489.0 331.0L489.0 325.0C489.0 323.89542 489.89542 323.0 491.0 323.0L516.0 323.0C517.10455 323.0 518.0 323.89542 518.0 325.0Z" fill-rule="nonzero"/><path stroke="#000000" stroke-width="2.0" stroke-linecap="butt" stroke-opacity="0.0" clip-path="url(#id_0)" d="M549.0 331.0L520.0 331.0L520.0 220.0C520.0 218.89543 520.89545 218.0 522.0 218.0L547.0 218.0C548.10455 218.0 549.0 218.89543 549.0 220.0Z" fill-rule="nonzero"/><path fill="#4285f4" clip-path="url(#id_0)" d="M549.0 331.0L520.0 331.0L520.0 220.0C520.0 218.89543 520.89545 218.0 522.0 218.0L547.0 218.0C548.10455 218.0 549.0 218.89543 549.0 220.0Z" fill-rule="nonzero"/><path stroke="#000000" stroke-width="2.0" stroke-linecap="butt" stroke-opacity="0.0" clip-path="url(#id_0)" d="M581.0 331.0L552.0 331.0L552.0 74.0C552.0 72.89543 552.89545 72.0 554.0 72.0L579.0 72.0C580.10455 72.0 581.0 72.89543 581.0 74.0Z" fill-rule="nonzero"/><path fill="#4285f4" clip-path="url(#id_0)" d="M581.0 331.0L552.0 331.0L552.0 74.0C552.0 72.89543 552.89545 72.0 554.0 72.0L579.0 72.0C580.10455 72.0 581.0 72.89543 581.0 74.0Z" fill-rule="nonzero"/><path fill="#757575" d="M38.6125 332.3094Q38.6125 334.21564 37.95625 335.15314Q37.315624 336.075 35.925 336.075Q34.565624 336.075 33.909374 335.16876Q33.253124 334.2625 33.221874 332.45L33.221874 331.0125Q33.221874 329.1219 33.8625 328.21564Q34.51875 327.29376 35.909374 327.29376Q37.284374 327.29376 37.940624 328.1844Q38.596874 329.0594 38.6125 330.90314L38.6125 332.3094ZM37.51875 330.825Q37.51875 329.45 37.128124 328.825Q36.753124 328.1844 35.909374 328.1844Q35.08125 328.1844 34.690624 328.825Q34.315624 329.45 34.315624 330.7469L34.315624 332.48126Q34.315624 333.85626 34.70625 334.52814Q35.1125 335.1844 35.925 335.1844Q36.721874 335.1844 37.1125 334.5594Q37.503124 333.9344 37.51875 332.60626L37.51875 330.825Z" fill-rule="nonzero"/><path fill="#757575" d="M26.753124 264.41043L27.190624 260.16043L31.565624 260.16043L31.565624 261.16043L28.1125 261.16043L27.846874 263.48856Q28.4875 263.11356 29.284374 263.11356Q30.440624 263.11356 31.128124 263.8948Q31.815624 264.66043 31.815624 265.97293Q31.815624 267.28543 31.096874 268.05106Q30.39375 268.81668 29.1125 268.81668Q27.9875 268.81668 27.26875 268.19168Q26.55 267.55106 26.45625 266.44168L27.471874 266.44168Q27.58125 267.17606 28.003124 267.55106Q28.425 267.92606 29.1125 267.92606Q29.8625 267.92606 30.3 267.41043Q30.7375 266.8948 30.7375 265.98856Q30.7375 265.12918 30.26875 264.61356Q29.8 264.09793 29.01875 264.09793Q28.315624 264.09793 27.909374 264.3948L27.628124 264.62918L26.753124 264.41043ZM38.6125 265.05106Q38.6125 266.9573 37.95625 267.8948Q37.315624 268.81668 35.925 268.81668Q34.565624 268.81668 33.909374 267.91043Q33.253124 267.00418 33.221874 265.19168L33.221874 263.75418Q33.221874 261.86356 33.8625 260.9573Q34.51875 260.03543 35.909374 260.03543Q37.284374 260.03543 37.940624 260.92606Q38.596874 261.80106 38.6125 263.6448L38.6125 265.05106ZM37.51875 263.56668Q37.51875 262.19168 37.128124 261.56668Q36.753124 260.92606 35.909374 260.92606Q35.08125 260.92606 34.690624 261.56668Q34.315624 262.19168 34.315624 263.48856L34.315624 265.22293Q34.315624 266.59793 34.70625 267.2698Q35.1125 267.92606 35.925 267.92606Q36.721874 267.92606 37.1125 267.30106Q37.503124 266.67606 37.51875 265.34793L37.51875 263.56668Z" fill-rule="nonzero"/><path fill="#757575" d="M22.815624 201.43333L21.7375 201.43333L21.7375 194.21458L19.55 195.01146L19.55 194.02708L22.659374 192.85521L22.815624 192.85521L22.815624 201.43333ZM31.6125 197.79271Q31.6125 199.69896 30.95625 200.63646Q30.315624 201.55833 28.925 201.55833Q27.565624 201.55833 26.909374 200.65208Q26.253124 199.74583 26.221874 197.93333L26.221874 196.49583Q26.221874 194.60521 26.8625 193.69896Q27.51875 192.77708 28.909374 192.77708Q30.284374 192.77708 30.940624 193.66771Q31.596874 194.54271 31.6125 196.38646L31.6125 197.79271ZM30.51875 196.30833Q30.51875 194.93333 30.128124 194.30833Q29.753124 193.66771 28.909374 193.66771Q28.08125 193.66771 27.690624 194.30833Q27.315624 194.93333 27.315624 196.23021L27.315624 197.96458Q27.315624 199.33958 27.70625 200.01146Q28.1125 200.66771 28.925 200.66771Q29.721874 200.66771 30.1125 200.04271Q30.503124 199.41771 30.51875 198.08958L30.51875 196.30833ZM38.6125 197.79271Q38.6125 199.69896 37.95625 200.63646Q37.315624 201.55833 35.925 201.55833Q34.565624 201.55833 33.909374 200.65208Q33.253124 199.74583 33.221874 197.93333L33.221874 196.49583Q33.221874 194.60521 33.8625 193.69896Q34.51875 192.77708 35.909374 192.77708Q37.284374 192.77708 37.940624 193.66771Q38.596874 194.54271 38.6125 196.38646L38.6125 197.79271ZM37.51875 196.30833Q37.51875 194.93333 37.128124 194.30833Q36.753124 193.66771 35.909374 193.66771Q35.08125 193.66771 34.690624 194.30833Q34.315624 194.93333 34.315624 196.23021L34.315624 197.96458Q34.315624 199.33958 34.70625 200.01146Q35.1125 200.66771 35.925 200.66771Q36.721874 200.66771 37.1125 200.04271Q37.503124 199.41771 37.51875 198.08958L37.51875 196.30833Z" fill-rule="nonzero"/><path fill="#757575" d="M22.815624 134.175L21.7375 134.175L21.7375 126.95625L19.55 127.75313L19.55 126.76875L22.659374 125.59688L22.815624 125.59688L22.815624 134.175ZM26.753124 129.89375L27.190624 125.64375L31.565624 125.64375L31.565624 126.64375L28.1125 126.64375L27.846874 128.97188Q28.4875 128.59688 29.284374 128.59688Q30.440624 128.59688 31.128124 129.37813Q31.815624 130.14375 31.815624 131.45625Q31.815624 132.76875 31.096874 133.53438Q30.39375 134.3 29.1125 134.3Q27.9875 134.3 27.26875 133.675Q26.55 133.03438 26.45625 131.925L27.471874 131.925Q27.58125 132.65938 28.003124 133.03438Q28.425 133.40938 29.1125 133.40938Q29.8625 133.40938 30.3 132.89375Q30.7375 132.37813 30.7375 131.47188Q30.7375 130.6125 30.26875 130.09688Q29.8 129.58125 29.01875 129.58125Q28.315624 129.58125 27.909374 129.87813L27.628124 130.1125L26.753124 129.89375ZM38.6125 130.53438Q38.6125 132.44063 37.95625 133.37813Q37.315624 134.3 35.925 134.3Q34.565624 134.3 33.909374 133.39375Q33.253124 132.4875 33.221874 130.675L33.221874 129.2375Q33.221874 127.34688 33.8625 126.44063Q34.51875 125.51875 35.909374 125.51875Q37.284374 125.51875 37.940624 126.40938Q38.596874 127.28438 38.6125 129.12813L38.6125 130.53438ZM37.51875 129.05Q37.51875 127.675 37.128124 127.05Q36.753124 126.40938 35.909374 126.40938Q35.08125 126.40938 34.690624 127.05Q34.315624 127.675 34.315624 128.97188L34.315624 130.70625Q34.315624 132.08125 34.70625 132.75313Q35.1125 133.40938 35.925 133.40938Q36.721874 133.40938 37.1125 132.78438Q37.503124 132.15938 37.51875 130.83125L37.51875 129.05Z" fill-rule="nonzero"/><path fill="#757575" d="M24.846874 66.916664L19.253124 66.916664L19.253124 66.135414L22.20625 62.854164Q22.8625 62.104164 23.1125 61.65104Q23.3625 61.18229 23.3625 60.68229Q23.3625 60.010414 22.95625 59.58854Q22.565624 59.15104 21.878124 59.15104Q21.08125 59.15104 20.628124 59.61979Q20.175 60.072914 20.175 60.90104L19.096874 60.90104Q19.096874 59.71354 19.846874 58.99479Q20.6125 58.260414 21.878124 58.260414Q23.08125 58.260414 23.76875 58.885414Q24.45625 59.510414 24.45625 60.55729Q24.45625 61.80729 22.846874 63.55729L20.565624 66.02604L24.846874 66.02604L24.846874 66.916664ZM31.6125 63.27604Q31.6125 65.18229 30.95625 66.11979Q30.315624 67.041664 28.925 67.041664Q27.565624 67.041664 26.909374 66.135414Q26.253124 65.229164 26.221874 63.416664L26.221874 61.979164Q26.221874 60.08854 26.8625 59.18229Q27.51875 58.260414 28.909374 58.260414Q30.284374 58.260414 30.940624 59.15104Q31.596874 60.02604 31.6125 61.86979L31.6125 63.27604ZM30.51875 61.791664Q30.51875 60.416664 30.128124 59.791664Q29.753124 59.15104 28.909374 59.15104Q28.08125 59.15104 27.690624 59.791664Q27.315624 60.416664 27.315624 61.71354L27.315624 63.447914Q27.315624 64.822914 27.70625 65.49479Q28.1125 66.15104 28.925 66.15104Q29.721874 66.15104 30.1125 65.52604Q30.503124 64.90104 30.51875 63.572914L30.51875 61.791664ZM38.6125 63.27604Q38.6125 65.18229 37.95625 66.11979Q37.315624 67.041664 35.925 67.041664Q34.565624 67.041664 33.909374 66.135414Q33.253124 65.229164 33.221874 63.416664L33.221874 61.979164Q33.221874 60.08854 33.8625 59.18229Q34.51875 58.260414 35.909374 58.260414Q37.284374 58.260414 37.940624 59.15104Q38.596874 60.02604 38.6125 61.86979L38.6125 63.27604ZM37.51875 61.791664Q37.51875 60.416664 37.128124 59.791664Q36.753124 59.15104 35.909374 59.15104Q35.08125 59.15104 34.690624 59.791664Q34.315624 60.416664 34.315624 61.71354L34.315624 63.447914Q34.315624 64.822914 34.70625 65.49479Q35.1125 66.15104 35.925 66.15104Q36.721874 66.15104 37.1125 65.52604Q37.503124 64.90104 37.51875 63.572914L37.51875 61.791664Z" fill-rule="nonzero"/><path fill="#757575" d="M39.6125 345.8094Q39.6125 347.71564 38.95625 348.65314Q38.315624 349.575 36.925 349.575Q35.565624 349.575 34.909374 348.66876Q34.253124 347.7625 34.221874 345.95L34.221874 344.5125Q34.221874 342.6219 34.8625 341.71564Q35.51875 340.79376 36.909374 340.79376Q38.284374 340.79376 38.940624 341.6844Q39.596874 342.5594 39.6125 344.40314L39.6125 345.8094ZM38.51875 344.325Q38.51875 342.95 38.128124 342.325Q37.753124 341.6844 36.909374 341.6844Q36.08125 341.6844 35.690624 342.325Q35.315624 342.95 35.315624 344.2469L35.315624 345.98126Q35.315624 347.35626 35.70625 348.02814Q36.1125 348.6844 36.925 348.6844Q37.721874 348.6844 38.1125 348.0594Q38.503124 347.4344 38.51875 346.10626L38.51875 344.325ZM41.39375 348.8875Q41.39375 348.60626 41.55 348.41876Q41.721874 348.23126 42.05 348.23126Q42.39375 348.23126 42.565624 348.41876Q42.7375 348.60626 42.7375 348.8875Q42.7375 349.15314 42.565624 349.34064Q42.39375 349.5125 42.05 349.5125Q41.721874 349.5125 41.55 349.34064Q41.39375 349.15314 41.39375 348.8875ZM49.6125 345.8094Q49.6125 347.71564 48.95625 348.65314Q48.315624 349.575 46.925 349.575Q45.565624 349.575 44.909374 348.66876Q44.253124 347.7625 44.221874 345.95L44.221874 344.5125Q44.221874 342.6219 44.8625 341.71564Q45.51875 340.79376 46.909374 340.79376Q48.284374 340.79376 48.940624 341.6844Q49.596874 342.5594 49.6125 344.40314L49.6125 345.8094ZM48.51875 344.325Q48.51875 342.95 48.128124 342.325Q47.753124 341.6844 46.909374 341.6844Q46.08125 341.6844 45.690624 342.325Q45.315624 342.95 45.315624 344.2469L45.315624 345.98126Q45.315624 347.35626 45.70625 348.02814Q46.1125 348.6844 46.925 348.6844Q47.721874 348.6844 48.1125 348.0594Q48.503124 347.4344 48.51875 346.10626L48.51875 344.325ZM56.6125 345.8094Q56.6125 347.71564 55.95625 348.65314Q55.315624 349.575 53.925 349.575Q52.565624 349.575 51.909374 348.66876Q51.253124 347.7625 51.221874 345.95L51.221874 344.5125Q51.221874 342.6219 51.8625 341.71564Q52.51875 340.79376 53.909374 340.79376Q55.284374 340.79376 55.940624 341.6844Q56.596874 342.5594 56.6125 344.40314L56.6125 345.8094ZM55.51875 344.325Q55.51875 342.95 55.128124 342.325Q54.753124 341.6844 53.909374 341.6844Q53.08125 341.6844 52.690624 342.325Q52.315624 342.95 52.315624 344.2469L52.315624 345.98126Q52.315624 347.35626 52.70625 348.02814Q53.1125 348.6844 53.925 348.6844Q54.721874 348.6844 55.1125 348.0594Q55.503124 347.4344 55.51875 346.10626L55.51875 344.325Z" fill-rule="nonzero"/><path fill="#757575" d="M71.13603 345.8094Q71.13603 347.71564 70.47978 348.65314Q69.83916 349.575 68.44853 349.575Q67.08916 349.575 66.43291 348.66876Q65.77666 347.7625 65.74541 345.95L65.74541 344.5125Q65.74541 342.6219 66.38603 341.71564Q67.04228 340.79376 68.43291 340.79376Q69.80791 340.79376 70.46416 341.6844Q71.12041 342.5594 71.13603 344.40314L71.13603 345.8094ZM70.04228 344.325Q70.04228 342.95 69.65166 342.325Q69.27666 341.6844 68.43291 341.6844Q67.60478 341.6844 67.21416 342.325Q66.83916 342.95 66.83916 344.2469L66.83916 345.98126Q66.83916 347.35626 67.22978 348.02814Q67.63603 348.6844 68.44853 348.6844Q69.24541 348.6844 69.63603 348.0594Q70.02666 347.4344 70.04228 346.10626L70.04228 344.325ZM72.91728 348.8875Q72.91728 348.60626 73.07353 348.41876Q73.24541 348.23126 73.57353 348.23126Q73.91728 348.23126 74.08916 348.41876Q74.26103 348.60626 74.26103 348.8875Q74.26103 349.15314 74.08916 349.34064Q73.91728 349.5125 73.57353 349.5125Q73.24541 349.5125 73.07353 349.34064Q72.91728 349.15314 72.91728 348.8875ZM81.13603 345.8094Q81.13603 347.71564 80.47978 348.65314Q79.83916 349.575 78.44853 349.575Q77.08916 349.575 76.43291 348.66876Q75.77666 347.7625 75.74541 345.95L75.74541 344.5125Q75.74541 342.6219 76.38603 341.71564Q77.04228 340.79376 78.43291 340.79376Q79.80791 340.79376 80.46416 341.6844Q81.12041 342.5594 81.13603 344.40314L81.13603 345.8094ZM80.04228 344.325Q80.04228 342.95 79.65166 342.325Q79.27666 341.6844 78.43291 341.6844Q77.60478 341.6844 77.21416 342.325Q76.83916 342.95 76.83916 344.2469L76.83916 345.98126Q76.83916 347.35626 77.22978 348.02814Q77.63603 348.6844 78.44853 348.6844Q79.24541 348.6844 79.63603 348.0594Q80.02666 347.4344 80.04228 346.10626L80.04228 344.325ZM87.04228 340.91876L87.04228 341.825L86.83916 341.825Q85.57353 341.85626 84.82353 342.59064Q84.07353 343.3094 83.94853 344.6219Q84.63603 343.85626 85.79228 343.85626Q86.90166 343.85626 87.57353 344.6375Q88.24541 345.41876 88.24541 346.66876Q88.24541 347.98126 87.52666 348.77814Q86.80791 349.575 85.58916 349.575Q84.37041 349.575 83.60478 348.6375Q82.85478 347.6844 82.85478 346.2L82.85478 345.79376Q82.85478 343.4344 83.85478 342.1844Q84.85478 340.9344 86.83916 340.91876L87.04228 340.91876ZM85.62041 344.7625Q85.05791 344.7625 84.58916 345.09064Q84.12041 345.41876 83.93291 345.9344L83.93291 346.325Q83.93291 347.3875 84.40166 348.02814Q84.88603 348.66876 85.58916 348.66876Q86.32353 348.66876 86.74541 348.1375Q87.16728 347.59064 87.16728 346.71564Q87.16728 345.84064 86.74541 345.3094Q86.32353 344.7625 85.62041 344.7625Z" fill-rule="nonzero"/><path fill="#757575" d="M102.65956 345.8094Q102.65956 347.71564 102.00331 348.65314Q101.362686 349.575 99.97206 349.575Q98.612686 349.575 97.956436 348.66876Q97.300186 347.7625 97.268936 345.95L97.268936 344.5125Q97.268936 342.6219 97.90956 341.71564Q98.56581 340.79376 99.956436 340.79376Q101.331436 340.79376 101.987686 341.6844Q102.643936 342.5594 102.65956 344.40314L102.65956 345.8094ZM101.56581 344.325Q101.56581 342.95 101.175186 342.325Q100.800186 341.6844 99.956436 341.6844Q99.12831 341.6844 98.737686 342.325Q98.362686 342.95 98.362686 344.2469L98.362686 345.98126Q98.362686 347.35626 98.75331 348.02814Q99.15956 348.6844 99.97206 348.6844Q100.768936 348.6844 101.15956 348.0594Q101.550186 347.4344 101.56581 346.10626L101.56581 344.325ZM104.44081 348.8875Q104.44081 348.60626 104.59706 348.41876Q104.768936 348.23126 105.09706 348.23126Q105.44081 348.23126 105.612686 348.41876Q105.78456 348.60626 105.78456 348.8875Q105.78456 349.15314 105.612686 349.34064Q105.44081 349.5125 105.09706 349.5125Q104.768936 349.5125 104.59706 349.34064Q104.44081 349.15314 104.44081 348.8875ZM110.862686 349.45L109.78456 349.45L109.78456 342.23126L107.59706 343.02814L107.59706 342.04376L110.706436 340.8719L110.862686 340.8719L110.862686 349.45ZM119.893936 349.45L114.300186 349.45L114.300186 348.66876L117.25331 345.3875Q117.90956 344.6375 118.15956 344.1844Q118.40956 343.71564 118.40956 343.21564Q118.40956 342.54376 118.00331 342.1219Q117.612686 341.6844 116.925186 341.6844Q116.12831 341.6844 115.675186 342.15314Q115.22206 342.60626 115.22206 343.4344L114.143936 343.4344Q114.143936 342.2469 114.893936 341.52814Q115.65956 340.79376 116.925186 340.79376Q118.12831 340.79376 118.81581 341.41876Q119.50331 342.04376 119.50331 343.09064Q119.50331 344.34064 117.893936 346.09064L115.612686 348.5594L119.893936 348.5594L119.893936 349.45Z" fill-rule="nonzero"/><path fill="#757575" d="M134.18309 345.8094Q134.18309 347.71564 133.52684 348.65314Q132.88622 349.575 131.49559 349.575Q130.13622 349.575 129.47997 348.66876Q128.82372 347.7625 128.79247 345.95L128.79247 344.5125Q128.79247 342.6219 129.43309 341.71564Q130.08934 340.79376 131.47997 340.79376Q132.85497 340.79376 133.51122 341.6844Q134.16747 342.5594 134.18309 344.40314L134.18309 345.8094ZM133.08934 344.325Q133.08934 342.95 132.69872 342.325Q132.32372 341.6844 131.47997 341.6844Q130.65184 341.6844 130.26122 342.325Q129.88622 342.95 129.88622 344.2469L129.88622 345.98126Q129.88622 347.35626 130.27684 348.02814Q130.68309 348.6844 131.49559 348.6844Q132.29247 348.6844 132.68309 348.0594Q133.07372 347.4344 133.08934 346.10626L133.08934 344.325ZM135.96434 348.8875Q135.96434 348.60626 136.12059 348.41876Q136.29247 348.23126 136.62059 348.23126Q136.96434 348.23126 137.13622 348.41876Q137.30809 348.60626 137.30809 348.8875Q137.30809 349.15314 137.13622 349.34064Q136.96434 349.5125 136.62059 349.5125Q136.29247 349.5125 136.12059 349.34064Q135.96434 349.15314 135.96434 348.8875ZM142.38622 349.45L141.30809 349.45L141.30809 342.23126L139.12059 343.02814L139.12059 342.04376L142.22997 340.8719L142.38622 340.8719L142.38622 349.45ZM151.01122 343.1375Q151.01122 343.77814 150.66747 344.27814Q150.32372 344.77814 149.76122 345.0594Q150.41747 345.34064 150.80809 345.90314Q151.19872 346.45 151.19872 347.15314Q151.19872 348.2469 150.44872 348.91876Q149.71434 349.575 148.49559 349.575Q147.26122 349.575 146.51122 348.91876Q145.77684 348.2469 145.77684 347.15314Q145.77684 346.45 146.15184 345.90314Q146.52684 345.34064 147.19872 345.0594Q146.63622 344.77814 146.30809 344.27814Q145.97997 343.77814 145.97997 343.1375Q145.97997 342.0594 146.66747 341.4344Q147.35497 340.79376 148.49559 340.79376Q149.62059 340.79376 150.30809 341.4344Q151.01122 342.0594 151.01122 343.1375ZM150.12059 347.1219Q150.12059 346.40314 149.66747 345.96564Q149.21434 345.5125 148.47997 345.5125Q147.74559 345.5125 147.29247 345.96564Q146.85497 346.40314 146.85497 347.1375Q146.85497 347.85626 147.29247 348.27814Q147.72997 348.6844 148.49559 348.6844Q149.24559 348.6844 149.68309 348.2625Q150.12059 347.84064 150.12059 347.1219ZM148.49559 341.6844Q147.85497 341.6844 147.44872 342.09064Q147.05809 342.48126 147.05809 343.16876Q147.05809 343.8094 147.44872 344.21564Q147.83934 344.6219 148.47997 344.6219Q149.13622 344.6219 149.52684 344.21564Q149.91747 343.8094 149.91747 343.16876Q149.91747 342.5125 149.51122 342.10626Q149.10497 341.6844 148.49559 341.6844Z" fill-rule="nonzero"/><path fill="#757575" d="M165.70662 345.8094Q165.70662 347.71564 165.05037 348.65314Q164.40974 349.575 163.01912 349.575Q161.65974 349.575 161.0035 348.66876Q160.34724 347.7625 160.316 345.95L160.316 344.5125Q160.316 342.6219 160.95662 341.71564Q161.61287 340.79376 163.0035 340.79376Q164.3785 340.79376 165.03474 341.6844Q165.691 342.5594 165.70662 344.40314L165.70662 345.8094ZM164.61287 344.325Q164.61287 342.95 164.22224 342.325Q163.84724 341.6844 163.0035 341.6844Q162.17537 341.6844 161.78474 342.325Q161.40974 342.95 161.40974 344.2469L161.40974 345.98126Q161.40974 347.35626 161.80037 348.02814Q162.20662 348.6844 163.01912 348.6844Q163.816 348.6844 164.20662 348.0594Q164.59724 347.4344 164.61287 346.10626L164.61287 344.325ZM167.48787 348.8875Q167.48787 348.60626 167.64412 348.41876Q167.816 348.23126 168.14412 348.23126Q168.48787 348.23126 168.65974 348.41876Q168.83162 348.60626 168.83162 348.8875Q168.83162 349.15314 168.65974 349.34064Q168.48787 349.5125 168.14412 349.5125Q167.816 349.5125 167.64412 349.34064Q167.48787 349.15314 167.48787 348.8875ZM175.941 349.45L170.34724 349.45L170.34724 348.66876L173.30037 345.3875Q173.95662 344.6375 174.20662 344.1844Q174.45662 343.71564 174.45662 343.21564Q174.45662 342.54376 174.05037 342.1219Q173.65974 341.6844 172.97224 341.6844Q172.17537 341.6844 171.72224 342.15314Q171.26912 342.60626 171.26912 343.4344L170.191 343.4344Q170.191 342.2469 170.941 341.52814Q171.70662 340.79376 172.97224 340.79376Q174.17537 340.79376 174.86287 341.41876Q175.55037 342.04376 175.55037 343.09064Q175.55037 344.34064 173.941 346.09064L171.65974 348.5594L175.941 348.5594L175.941 349.45ZM181.92537 346.59064L183.11287 346.59064L183.11287 347.46564L181.92537 347.46564L181.92537 349.45L180.84724 349.45L180.84724 347.46564L176.95662 347.46564L176.95662 346.825L180.76912 340.91876L181.92537 340.91876L181.92537 346.59064ZM178.191 346.59064L180.84724 346.59064L180.84724 342.40314L180.70662 342.6375L178.191 346.59064Z" fill-rule="nonzero"/><path fill="#757575" d="M197.23015 345.8094Q197.23015 347.71564 196.5739 348.65314Q195.93327 349.575 194.54265 349.575Q193.18327 349.575 192.52702 348.66876Q191.87077 347.7625 191.83952 345.95L191.83952 344.5125Q191.83952 342.6219 192.48015 341.71564Q193.1364 340.79376 194.52702 340.79376Q195.90202 340.79376 196.55827 341.6844Q197.21452 342.5594 197.23015 344.40314L197.23015 345.8094ZM196.1364 344.325Q196.1364 342.95 195.74577 342.325Q195.37077 341.6844 194.52702 341.6844Q193.6989 341.6844 193.30827 342.325Q192.93327 342.95 192.93327 344.2469L192.93327 345.98126Q192.93327 347.35626 193.3239 348.02814Q193.73015 348.6844 194.54265 348.6844Q195.33952 348.6844 195.73015 348.0594Q196.12077 347.4344 196.1364 346.10626L196.1364 344.325ZM199.0114 348.8875Q199.0114 348.60626 199.16765 348.41876Q199.33952 348.23126 199.66765 348.23126Q200.0114 348.23126 200.18327 348.41876Q200.35515 348.60626 200.35515 348.8875Q200.35515 349.15314 200.18327 349.34064Q200.0114 349.5125 199.66765 349.5125Q199.33952 349.5125 199.16765 349.34064Q199.0114 349.15314 199.0114 348.8875ZM203.4489 344.65314L204.2614 344.65314Q205.04265 344.6375 205.48015 344.2469Q205.91765 343.85626 205.91765 343.1844Q205.91765 341.6844 204.41765 341.6844Q203.71452 341.6844 203.29265 342.09064Q202.8864 342.4969 202.8864 343.15314L201.79265 343.15314Q201.79265 342.1375 202.52702 341.46564Q203.27702 340.79376 204.41765 340.79376Q205.62077 340.79376 206.30827 341.4344Q206.99577 342.075 206.99577 343.21564Q206.99577 343.77814 206.6364 344.29376Q206.27702 344.8094 205.65202 345.075Q206.35515 345.29376 206.73015 345.8094Q207.12077 346.325 207.12077 347.075Q207.12077 348.21564 206.37077 348.90314Q205.62077 349.575 204.41765 349.575Q203.23015 349.575 202.46452 348.91876Q201.71452 348.2625 201.71452 347.2L202.80827 347.2Q202.80827 347.8719 203.24577 348.27814Q203.68327 348.6844 204.43327 348.6844Q205.21452 348.6844 205.62077 348.27814Q206.04265 347.85626 206.04265 347.09064Q206.04265 346.35626 205.58952 345.96564Q205.1364 345.5594 204.2614 345.54376L203.4489 345.54376L203.4489 344.65314ZM214.23015 345.8094Q214.23015 347.71564 213.5739 348.65314Q212.93327 349.575 211.54265 349.575Q210.18327 349.575 209.52702 348.66876Q208.87077 347.7625 208.83952 345.95L208.83952 344.5125Q208.83952 342.6219 209.48015 341.71564Q210.1364 340.79376 211.52702 340.79376Q212.90202 340.79376 213.55827 341.6844Q214.21452 342.5594 214.23015 344.40314L214.23015 345.8094ZM213.1364 344.325Q213.1364 342.95 212.74577 342.325Q212.37077 341.6844 211.52702 341.6844Q210.6989 341.6844 210.30827 342.325Q209.93327 342.95 209.93327 344.2469L209.93327 345.98126Q209.93327 347.35626 210.3239 348.02814Q210.73015 348.6844 211.54265 348.6844Q212.33952 348.6844 212.73015 348.0594Q213.12077 347.4344 213.1364 346.10626L213.1364 344.325Z" fill-rule="nonzero"/><path fill="#757575" d="M228.75368 345.8094Q228.75368 347.71564 228.09743 348.65314Q227.4568 349.575 226.06618 349.575Q224.7068 349.575 224.05055 348.66876Q223.3943 347.7625 223.36305 345.95L223.36305 344.5125Q223.36305 342.6219 224.00368 341.71564Q224.65993 340.79376 226.05055 340.79376Q227.42555 340.79376 228.0818 341.6844Q228.73805 342.5594 228.75368 344.40314L228.75368 345.8094ZM227.65993 344.325Q227.65993 342.95 227.2693 342.325Q226.8943 341.6844 226.05055 341.6844Q225.22243 341.6844 224.8318 342.325Q224.4568 342.95 224.4568 344.2469L224.4568 345.98126Q224.4568 347.35626 224.84743 348.02814Q225.25368 348.6844 226.06618 348.6844Q226.86305 348.6844 227.25368 348.0594Q227.6443 347.4344 227.65993 346.10626L227.65993 344.325ZM230.53493 348.8875Q230.53493 348.60626 230.69118 348.41876Q230.86305 348.23126 231.19118 348.23126Q231.53493 348.23126 231.7068 348.41876Q231.87868 348.60626 231.87868 348.8875Q231.87868 349.15314 231.7068 349.34064Q231.53493 349.5125 231.19118 349.5125Q230.86305 349.5125 230.69118 349.34064Q230.53493 349.15314 230.53493 348.8875ZM234.97243 344.65314L235.78493 344.65314Q236.56618 344.6375 237.00368 344.2469Q237.44118 343.85626 237.44118 343.1844Q237.44118 341.6844 235.94118 341.6844Q235.23805 341.6844 234.81618 342.09064Q234.40993 342.4969 234.40993 343.15314L233.31618 343.15314Q233.31618 342.1375 234.05055 341.46564Q234.80055 340.79376 235.94118 340.79376Q237.1443 340.79376 237.8318 341.4344Q238.5193 342.075 238.5193 343.21564Q238.5193 343.77814 238.15993 344.29376Q237.80055 344.8094 237.17555 345.075Q237.87868 345.29376 238.25368 345.8094Q238.6443 346.325 238.6443 347.075Q238.6443 348.21564 237.8943 348.90314Q237.1443 349.575 235.94118 349.575Q234.75368 349.575 233.98805 348.91876Q233.23805 348.2625 233.23805 347.2L234.3318 347.2Q234.3318 347.8719 234.7693 348.27814Q235.2068 348.6844 235.9568 348.6844Q236.73805 348.6844 237.1443 348.27814Q237.56618 347.85626 237.56618 347.09064Q237.56618 346.35626 237.11305 345.96564Q236.65993 345.5594 235.78493 345.54376L234.97243 345.54376L234.97243 344.65314ZM244.65993 340.91876L244.65993 341.825L244.4568 341.825Q243.19118 341.85626 242.44118 342.59064Q241.69118 343.3094 241.56618 344.6219Q242.25368 343.85626 243.40993 343.85626Q244.5193 343.85626 245.19118 344.6375Q245.86305 345.41876 245.86305 346.66876Q245.86305 347.98126 245.1443 348.77814Q244.42555 349.575 243.2068 349.575Q241.98805 349.575 241.22243 348.6375Q240.47243 347.6844 240.47243 346.2L240.47243 345.79376Q240.47243 343.4344 241.47243 342.1844Q242.47243 340.9344 244.4568 340.91876L244.65993 340.91876ZM243.23805 344.7625Q242.67555 344.7625 242.2068 345.09064Q241.73805 345.41876 241.55055 345.9344L241.55055 346.325Q241.55055 347.3875 242.0193 348.02814Q242.50368 348.66876 243.2068 348.66876Q243.94118 348.66876 244.36305 348.1375Q244.78493 347.59064 244.78493 346.71564Q244.78493 345.84064 244.36305 345.3094Q243.94118 344.7625 243.23805 344.7625Z" fill-rule="nonzero"/><path fill="#757575" d="M260.27722 345.8094Q260.27722 347.71564 259.62097 348.65314Q258.98035 349.575 257.58972 349.575Q256.23035 349.575 255.57408 348.66876Q254.91783 347.7625 254.88658 345.95L254.88658 344.5125Q254.88658 342.6219 255.5272 341.71564Q256.18347 340.79376 257.5741 340.79376Q258.9491 340.79376 259.60535 341.6844Q260.2616 342.5594 260.27722 344.40314L260.27722 345.8094ZM259.18347 344.325Q259.18347 342.95 258.79285 342.325Q258.41785 341.6844 257.5741 341.6844Q256.74597 341.6844 256.35535 342.325Q255.98033 342.95 255.98033 344.2469L255.98033 345.98126Q255.98033 347.35626 256.37097 348.02814Q256.77722 348.6844 257.58972 348.6844Q258.3866 348.6844 258.77722 348.0594Q259.16785 347.4344 259.18347 346.10626L259.18347 344.325ZM262.05847 348.8875Q262.05847 348.60626 262.21472 348.41876Q262.3866 348.23126 262.71472 348.23126Q263.05847 348.23126 263.23035 348.41876Q263.40222 348.60626 263.40222 348.8875Q263.40222 349.15314 263.23035 349.34064Q263.05847 349.5125 262.71472 349.5125Q262.3866 349.5125 262.21472 349.34064Q262.05847 349.15314 262.05847 348.8875ZM269.49597 346.59064L270.68347 346.59064L270.68347 347.46564L269.49597 347.46564L269.49597 349.45L268.41785 349.45L268.41785 347.46564L264.52722 347.46564L264.52722 346.825L268.33972 340.91876L269.49597 340.91876L269.49597 346.59064ZM265.7616 346.59064L268.41785 346.59064L268.41785 342.40314L268.27722 342.6375L265.7616 346.59064ZM277.5116 349.45L271.91785 349.45L271.91785 348.66876L274.87097 345.3875Q275.52722 344.6375 275.77722 344.1844Q276.02722 343.71564 276.02722 343.21564Q276.02722 342.54376 275.62097 342.1219Q275.23035 341.6844 274.54285 341.6844Q273.74597 341.6844 273.29285 342.15314Q272.83972 342.60626 272.83972 343.4344L271.7616 343.4344Q271.7616 342.2469 272.5116 341.52814Q273.27722 340.79376 274.54285 340.79376Q275.74597 340.79376 276.43347 341.41876Q277.12097 342.04376 277.12097 343.09064Q277.12097 344.34064 275.5116 346.09064L273.23035 348.5594L277.5116 348.5594L277.5116 349.45Z" fill-rule="nonzero"/><path fill="#757575" d="M291.80072 345.8094Q291.80072 347.71564 291.14447 348.65314Q290.50385 349.575 289.11322 349.575Q287.75385 349.575 287.0976 348.66876Q286.44135 347.7625 286.4101 345.95L286.4101 344.5125Q286.4101 342.6219 287.05072 341.71564Q287.70697 340.79376 289.0976 340.79376Q290.4726 340.79376 291.12885 341.6844Q291.7851 342.5594 291.80072 344.40314L291.80072 345.8094ZM290.70697 344.325Q290.70697 342.95 290.31635 342.325Q289.94135 341.6844 289.0976 341.6844Q288.26947 341.6844 287.87885 342.325Q287.50385 342.95 287.50385 344.2469L287.50385 345.98126Q287.50385 347.35626 287.89447 348.02814Q288.30072 348.6844 289.11322 348.6844Q289.9101 348.6844 290.30072 348.0594Q290.69135 347.4344 290.70697 346.10626L290.70697 344.325ZM293.58197 348.8875Q293.58197 348.60626 293.73822 348.41876Q293.9101 348.23126 294.23822 348.23126Q294.58197 348.23126 294.75385 348.41876Q294.92572 348.60626 294.92572 348.8875Q294.92572 349.15314 294.75385 349.34064Q294.58197 349.5125 294.23822 349.5125Q293.9101 349.5125 293.73822 349.34064Q293.58197 349.15314 293.58197 348.8875ZM301.01947 346.59064L302.20697 346.59064L302.20697 347.46564L301.01947 347.46564L301.01947 349.45L299.94135 349.45L299.94135 347.46564L296.05072 347.46564L296.05072 346.825L299.86322 340.91876L301.01947 340.91876L301.01947 346.59064ZM297.2851 346.59064L299.94135 346.59064L299.94135 342.40314L299.80072 342.6375L297.2851 346.59064ZM308.62885 343.1375Q308.62885 343.77814 308.2851 344.27814Q307.94135 344.77814 307.37885 345.0594Q308.0351 345.34064 308.42572 345.90314Q308.81635 346.45 308.81635 347.15314Q308.81635 348.2469 308.06635 348.91876Q307.33197 349.575 306.11322 349.575Q304.87885 349.575 304.12885 348.91876Q303.39447 348.2469 303.39447 347.15314Q303.39447 346.45 303.76947 345.90314Q304.14447 345.34064 304.81635 345.0594Q304.25385 344.77814 303.92572 344.27814Q303.5976 343.77814 303.5976 343.1375Q303.5976 342.0594 304.2851 341.4344Q304.9726 340.79376 306.11322 340.79376Q307.23822 340.79376 307.92572 341.4344Q308.62885 342.0594 308.62885 343.1375ZM307.73822 347.1219Q307.73822 346.40314 307.2851 345.96564Q306.83197 345.5125 306.0976 345.5125Q305.36322 345.5125 304.9101 345.96564Q304.4726 346.40314 304.4726 347.1375Q304.4726 347.85626 304.9101 348.27814Q305.3476 348.6844 306.11322 348.6844Q306.86322 348.6844 307.30072 348.2625Q307.73822 347.84064 307.73822 347.1219ZM306.11322 341.6844Q305.4726 341.6844 305.06635 342.09064Q304.67572 342.48126 304.67572 343.16876Q304.67572 343.8094 305.06635 344.21564Q305.45697 344.6219 306.0976 344.6219Q306.75385 344.6219 307.14447 344.21564Q307.5351 343.8094 307.5351 343.16876Q307.5351 342.5125 307.12885 342.10626Q306.7226 341.6844 306.11322 341.6844Z" fill-rule="nonzero"/><path fill="#757575" d="M323.32428 345.8094Q323.32428 347.71564 322.66803 348.65314Q322.0274 349.575 320.63678 349.575Q319.2774 349.575 318.62115 348.66876Q317.9649 347.7625 317.93365 345.95L317.93365 344.5125Q317.93365 342.6219 318.57428 341.71564Q319.23053 340.79376 320.62115 340.79376Q321.99615 340.79376 322.6524 341.6844Q323.30865 342.5594 323.32428 344.40314L323.32428 345.8094ZM322.23053 344.325Q322.23053 342.95 321.8399 342.325Q321.4649 341.6844 320.62115 341.6844Q319.79303 341.6844 319.4024 342.325Q319.0274 342.95 319.0274 344.2469L319.0274 345.98126Q319.0274 347.35626 319.41803 348.02814Q319.82428 348.6844 320.63678 348.6844Q321.43365 348.6844 321.82428 348.0594Q322.2149 347.4344 322.23053 346.10626L322.23053 344.325ZM325.10553 348.8875Q325.10553 348.60626 325.26178 348.41876Q325.43365 348.23126 325.76178 348.23126Q326.10553 348.23126 326.2774 348.41876Q326.44928 348.60626 326.44928 348.8875Q326.44928 349.15314 326.2774 349.34064Q326.10553 349.5125 325.76178 349.5125Q325.43365 349.5125 325.26178 349.34064Q325.10553 349.15314 325.10553 348.8875ZM328.4649 345.16876L328.9024 340.91876L333.2774 340.91876L333.2774 341.91876L329.82428 341.91876L329.55865 344.2469Q330.19928 343.8719 330.99615 343.8719Q332.1524 343.8719 332.8399 344.65314Q333.5274 345.41876 333.5274 346.73126Q333.5274 348.04376 332.80865 348.8094Q332.10553 349.575 330.82428 349.575Q329.69928 349.575 328.98053 348.95Q328.26178 348.3094 328.16803 347.2L329.18365 347.2Q329.29303 347.9344 329.7149 348.3094Q330.13678 348.6844 330.82428 348.6844Q331.57428 348.6844 332.01178 348.16876Q332.44928 347.65314 332.44928 346.7469Q332.44928 345.8875 331.98053 345.3719Q331.51178 344.85626 330.73053 344.85626Q330.0274 344.85626 329.62115 345.15314L329.3399 345.3875L328.4649 345.16876ZM336.54303 344.65314L337.35553 344.65314Q338.13678 344.6375 338.57428 344.2469Q339.01178 343.85626 339.01178 343.1844Q339.01178 341.6844 337.51178 341.6844Q336.80865 341.6844 336.38678 342.09064Q335.98053 342.4969 335.98053 343.15314L334.88678 343.15314Q334.88678 342.1375 335.62115 341.46564Q336.37115 340.79376 337.51178 340.79376Q338.7149 340.79376 339.4024 341.4344Q340.0899 342.075 340.0899 343.21564Q340.0899 343.77814 339.73053 344.29376Q339.37115 344.8094 338.74615 345.075Q339.44928 345.29376 339.82428 345.8094Q340.2149 346.325 340.2149 347.075Q340.2149 348.21564 339.4649 348.90314Q338.7149 349.575 337.51178 349.575Q336.32428 349.575 335.55865 348.91876Q334.80865 348.2625 334.80865 347.2L335.9024 347.2Q335.9024 347.8719 336.3399 348.27814Q336.7774 348.6844 337.5274 348.6844Q338.30865 348.6844 338.7149 348.27814Q339.13678 347.85626 339.13678 347.09064Q339.13678 346.35626 338.68365 345.96564Q338.23053 345.5594 337.35553 345.54376L336.54303 345.54376L336.54303 344.65314Z" fill-rule="nonzero"/><path fill="#757575" d="M354.8478 345.8094Q354.8478 347.71564 354.19156 348.65314Q353.55093 349.575 352.1603 349.575Q350.80093 349.575 350.14468 348.66876Q349.48843 347.7625 349.45718 345.95L349.45718 344.5125Q349.45718 342.6219 350.0978 341.71564Q350.75406 340.79376 352.14468 340.79376Q353.51968 340.79376 354.17593 341.6844Q354.83218 342.5594 354.8478 344.40314L354.8478 345.8094ZM353.75406 344.325Q353.75406 342.95 353.36343 342.325Q352.98843 341.6844 352.14468 341.6844Q351.31656 341.6844 350.92593 342.325Q350.55093 342.95 350.55093 344.2469L350.55093 345.98126Q350.55093 347.35626 350.94156 348.02814Q351.3478 348.6844 352.1603 348.6844Q352.95718 348.6844 353.3478 348.0594Q353.73843 347.4344 353.75406 346.10626L353.75406 344.325ZM356.62906 348.8875Q356.62906 348.60626 356.7853 348.41876Q356.95718 348.23126 357.2853 348.23126Q357.62906 348.23126 357.80093 348.41876Q357.9728 348.60626 357.9728 348.8875Q357.9728 349.15314 357.80093 349.34064Q357.62906 349.5125 357.2853 349.5125Q356.95718 349.5125 356.7853 349.34064Q356.62906 349.15314 356.62906 348.8875ZM359.98843 345.16876L360.42593 340.91876L364.80093 340.91876L364.80093 341.91876L361.3478 341.91876L361.08218 344.2469Q361.7228 343.8719 362.51968 343.8719Q363.67593 343.8719 364.36343 344.65314Q365.05093 345.41876 365.05093 346.73126Q365.05093 348.04376 364.33218 348.8094Q363.62906 349.575 362.3478 349.575Q361.2228 349.575 360.50406 348.95Q359.7853 348.3094 359.69156 347.2L360.70718 347.2Q360.81656 347.9344 361.23843 348.3094Q361.6603 348.6844 362.3478 348.6844Q363.0978 348.6844 363.5353 348.16876Q363.9728 347.65314 363.9728 346.7469Q363.9728 345.8875 363.50406 345.3719Q363.0353 344.85626 362.25406 344.85626Q361.55093 344.85626 361.14468 345.15314L360.86343 345.3875L359.98843 345.16876ZM370.64468 345.7Q370.31656 346.10626 369.83218 346.35626Q369.36343 346.59064 368.80093 346.59064Q368.06656 346.59064 367.51968 346.23126Q366.9728 345.8719 366.67593 345.21564Q366.37906 344.54376 366.37906 343.7469Q366.37906 342.90314 366.69156 342.21564Q367.01968 341.52814 367.61343 341.16876Q368.2228 340.79376 369.01968 340.79376Q370.2853 340.79376 371.00406 341.7469Q371.73843 342.7 371.73843 344.325L371.73843 344.6375Q371.73843 347.1375 370.75406 348.27814Q369.76968 349.41876 367.7853 349.45L367.56656 349.45L367.56656 348.54376L367.80093 348.54376Q369.14468 348.5125 369.86343 347.84064Q370.58218 347.16876 370.64468 345.7ZM368.9728 345.7Q369.51968 345.7 369.9728 345.3719Q370.44156 345.02814 370.6603 344.54376L370.6603 344.10626Q370.6603 343.04376 370.19156 342.3719Q369.7228 341.7 369.01968 341.7Q368.30093 341.7 367.86343 342.2469Q367.44156 342.79376 367.44156 343.7Q367.44156 344.575 367.8478 345.1375Q368.26968 345.7 368.9728 345.7Z" fill-rule="nonzero"/><path fill="#757575" d="M386.37134 345.8094Q386.37134 347.71564 385.7151 348.65314Q385.07446 349.575 383.68384 349.575Q382.32446 349.575 381.6682 348.66876Q381.01196 347.7625 380.9807 345.95L380.9807 344.5125Q380.9807 342.6219 381.62134 341.71564Q382.2776 340.79376 383.6682 340.79376Q385.0432 340.79376 385.69946 341.6844Q386.3557 342.5594 386.37134 344.40314L386.37134 345.8094ZM385.2776 344.325Q385.2776 342.95 384.88696 342.325Q384.51196 341.6844 383.6682 341.6844Q382.8401 341.6844 382.44946 342.325Q382.07446 342.95 382.07446 344.2469L382.07446 345.98126Q382.07446 347.35626 382.4651 348.02814Q382.87134 348.6844 383.68384 348.6844Q384.4807 348.6844 384.87134 348.0594Q385.26196 347.4344 385.2776 346.10626L385.2776 344.325ZM388.1526 348.8875Q388.1526 348.60626 388.30884 348.41876Q388.4807 348.23126 388.80884 348.23126Q389.1526 348.23126 389.32446 348.41876Q389.49634 348.60626 389.49634 348.8875Q389.49634 349.15314 389.32446 349.34064Q389.1526 349.5125 388.80884 349.5125Q388.4807 349.5125 388.30884 349.34064Q388.1526 349.15314 388.1526 348.8875ZM395.2776 340.91876L395.2776 341.825L395.07446 341.825Q393.80884 341.85626 393.05884 342.59064Q392.30884 343.3094 392.18384 344.6219Q392.87134 343.85626 394.0276 343.85626Q395.13696 343.85626 395.80884 344.6375Q396.4807 345.41876 396.4807 346.66876Q396.4807 347.98126 395.76196 348.77814Q395.0432 349.575 393.82446 349.575Q392.6057 349.575 391.8401 348.6375Q391.0901 347.6844 391.0901 346.2L391.0901 345.79376Q391.0901 343.4344 392.0901 342.1844Q393.0901 340.9344 395.07446 340.91876L395.2776 340.91876ZM393.8557 344.7625Q393.2932 344.7625 392.82446 345.09064Q392.3557 345.41876 392.1682 345.9344L392.1682 346.325Q392.1682 347.3875 392.63696 348.02814Q393.12134 348.66876 393.82446 348.66876Q394.55884 348.66876 394.9807 348.1375Q395.4026 347.59064 395.4026 346.71564Q395.4026 345.84064 394.9807 345.3094Q394.55884 344.7625 393.8557 344.7625ZM398.51196 345.16876L398.94946 340.91876L403.32446 340.91876L403.32446 341.91876L399.87134 341.91876L399.6057 344.2469Q400.24634 343.8719 401.0432 343.8719Q402.19946 343.8719 402.88696 344.65314Q403.57446 345.41876 403.57446 346.73126Q403.57446 348.04376 402.8557 348.8094Q402.1526 349.575 400.87134 349.575Q399.74634 349.575 399.0276 348.95Q398.30884 348.3094 398.2151 347.2L399.2307 347.2Q399.3401 347.9344 399.76196 348.3094Q400.18384 348.6844 400.87134 348.6844Q401.62134 348.6844 402.05884 348.16876Q402.49634 347.65314 402.49634 346.7469Q402.49634 345.8875 402.0276 345.3719Q401.55884 344.85626 400.7776 344.85626Q400.07446 344.85626 399.6682 345.15314L399.38696 345.3875L398.51196 345.16876Z" fill-rule="nonzero"/><path fill="#757575" d="M417.89487 345.8094Q417.89487 347.71564 417.23862 348.65314Q416.598 349.575 415.20737 349.575Q413.848 349.575 413.19174 348.66876Q412.5355 347.7625 412.50424 345.95L412.50424 344.5125Q412.50424 342.6219 413.14487 341.71564Q413.80112 340.79376 415.19174 340.79376Q416.56674 340.79376 417.223 341.6844Q417.87924 342.5594 417.89487 344.40314L417.89487 345.8094ZM416.80112 344.325Q416.80112 342.95 416.4105 342.325Q416.0355 341.6844 415.19174 341.6844Q414.36362 341.6844 413.973 342.325Q413.598 342.95 413.598 344.2469L413.598 345.98126Q413.598 347.35626 413.98862 348.02814Q414.39487 348.6844 415.20737 348.6844Q416.00424 348.6844 416.39487 348.0594Q416.7855 347.4344 416.80112 346.10626L416.80112 344.325ZM419.67612 348.8875Q419.67612 348.60626 419.83237 348.41876Q420.00424 348.23126 420.33237 348.23126Q420.67612 348.23126 420.848 348.41876Q421.01987 348.60626 421.01987 348.8875Q421.01987 349.15314 420.848 349.34064Q420.67612 349.5125 420.33237 349.5125Q420.00424 349.5125 419.83237 349.34064Q419.67612 349.15314 419.67612 348.8875ZM428.05112 341.52814L424.51987 349.45L423.37924 349.45L426.89487 341.8094L422.2855 341.8094L422.2855 340.91876L428.05112 340.91876L428.05112 341.52814ZM433.098 349.45L432.01987 349.45L432.01987 342.23126L429.83237 343.02814L429.83237 342.04376L432.94174 340.8719L433.098 340.8719L433.098 349.45Z" fill-rule="nonzero"/><path fill="#757575" d="M449.4184 345.8094Q449.4184 347.71564 448.76215 348.65314Q448.12152 349.575 446.7309 349.575Q445.37152 349.575 444.71527 348.66876Q444.05902 347.7625 444.02777 345.95L444.02777 344.5125Q444.02777 342.6219 444.6684 341.71564Q445.32465 340.79376 446.71527 340.79376Q448.09027 340.79376 448.74652 341.6844Q449.40277 342.5594 449.4184 344.40314L449.4184 345.8094ZM448.32465 344.325Q448.32465 342.95 447.93402 342.325Q447.55902 341.6844 446.71527 341.6844Q445.88715 341.6844 445.49652 342.325Q445.12152 342.95 445.12152 344.2469L445.12152 345.98126Q445.12152 347.35626 445.51215 348.02814Q445.9184 348.6844 446.7309 348.6844Q447.52777 348.6844 447.9184 348.0594Q448.30902 347.4344 448.32465 346.10626L448.32465 344.325ZM451.19965 348.8875Q451.19965 348.60626 451.3559 348.41876Q451.52777 348.23126 451.8559 348.23126Q452.19965 348.23126 452.37152 348.41876Q452.5434 348.60626 452.5434 348.8875Q452.5434 349.15314 452.37152 349.34064Q452.19965 349.5125 451.8559 349.5125Q451.52777 349.5125 451.3559 349.34064Q451.19965 349.15314 451.19965 348.8875ZM459.57465 341.52814L456.0434 349.45L454.90277 349.45L458.4184 341.8094L453.80902 341.8094L453.80902 340.91876L459.57465 340.91876L459.57465 341.52814ZM466.57465 341.52814L463.0434 349.45L461.90277 349.45L465.4184 341.8094L460.80902 341.8094L460.80902 340.91876L466.57465 340.91876L466.57465 341.52814Z" fill-rule="nonzero"/><path fill="#757575" d="M480.94193 345.8094Q480.94193 347.71564 480.28568 348.65314Q479.64505 349.575 478.25443 349.575Q476.89505 349.575 476.2388 348.66876Q475.58255 347.7625 475.5513 345.95L475.5513 344.5125Q475.5513 342.6219 476.19193 341.71564Q476.84818 340.79376 478.2388 340.79376Q479.6138 340.79376 480.27005 341.6844Q480.9263 342.5594 480.94193 344.40314L480.94193 345.8094ZM479.84818 344.325Q479.84818 342.95 479.45755 342.325Q479.08255 341.6844 478.2388 341.6844Q477.41068 341.6844 477.02005 342.325Q476.64505 342.95 476.64505 344.2469L476.64505 345.98126Q476.64505 347.35626 477.03568 348.02814Q477.44193 348.6844 478.25443 348.6844Q479.0513 348.6844 479.44193 348.0594Q479.83255 347.4344 479.84818 346.10626L479.84818 344.325ZM482.72318 348.8875Q482.72318 348.60626 482.87943 348.41876Q483.0513 348.23126 483.37943 348.23126Q483.72318 348.23126 483.89505 348.41876Q484.06693 348.60626 484.06693 348.8875Q484.06693 349.15314 483.89505 349.34064Q483.72318 349.5125 483.37943 349.5125Q483.0513 349.5125 482.87943 349.34064Q482.72318 349.15314 482.72318 348.8875ZM490.77005 343.1375Q490.77005 343.77814 490.4263 344.27814Q490.08255 344.77814 489.52005 345.0594Q490.1763 345.34064 490.56693 345.90314Q490.95755 346.45 490.95755 347.15314Q490.95755 348.2469 490.20755 348.91876Q489.47318 349.575 488.25443 349.575Q487.02005 349.575 486.27005 348.91876Q485.53568 348.2469 485.53568 347.15314Q485.53568 346.45 485.91068 345.90314Q486.28568 345.34064 486.95755 345.0594Q486.39505 344.77814 486.06693 344.27814Q485.7388 343.77814 485.7388 343.1375Q485.7388 342.0594 486.4263 341.4344Q487.1138 340.79376 488.25443 340.79376Q489.37943 340.79376 490.06693 341.4344Q490.77005 342.0594 490.77005 343.1375ZM489.87943 347.1219Q489.87943 346.40314 489.4263 345.96564Q488.97318 345.5125 488.2388 345.5125Q487.50443 345.5125 487.0513 345.96564Q486.6138 346.40314 486.6138 347.1375Q486.6138 347.85626 487.0513 348.27814Q487.4888 348.6844 488.25443 348.6844Q489.00443 348.6844 489.44193 348.2625Q489.87943 347.84064 489.87943 347.1219ZM488.25443 341.6844Q487.6138 341.6844 487.20755 342.09064Q486.81693 342.48126 486.81693 343.16876Q486.81693 343.8094 487.20755 344.21564Q487.59818 344.6219 488.2388 344.6219Q488.89505 344.6219 489.28568 344.21564Q489.6763 343.8094 489.6763 343.16876Q489.6763 342.5125 489.27005 342.10626Q488.8638 341.6844 488.25443 341.6844ZM494.16068 344.65314L494.97318 344.65314Q495.75443 344.6375 496.19193 344.2469Q496.62943 343.85626 496.62943 343.1844Q496.62943 341.6844 495.12943 341.6844Q494.4263 341.6844 494.00443 342.09064Q493.59818 342.4969 493.59818 343.15314L492.50443 343.15314Q492.50443 342.1375 493.2388 341.46564Q493.9888 340.79376 495.12943 340.79376Q496.33255 340.79376 497.02005 341.4344Q497.70755 342.075 497.70755 343.21564Q497.70755 343.77814 497.34818 344.29376Q496.9888 344.8094 496.3638 345.075Q497.06693 345.29376 497.44193 345.8094Q497.83255 346.325 497.83255 347.075Q497.83255 348.21564 497.08255 348.90314Q496.33255 349.575 495.12943 349.575Q493.94193 349.575 493.1763 348.91876Q492.4263 348.2625 492.4263 347.2L493.52005 347.2Q493.52005 347.8719 493.95755 348.27814Q494.39505 348.6844 495.14505 348.6844Q495.9263 348.6844 496.33255 348.27814Q496.75443 347.85626 496.75443 347.09064Q496.75443 346.35626 496.3013 345.96564Q495.84818 345.5594 494.97318 345.54376L494.16068 345.54376L494.16068 344.65314Z" fill-rule="nonzero"/><path fill="#757575" d="M512.46545 345.8094Q512.46545 347.71564 511.8092 348.65314Q511.16858 349.575 509.77795 349.575Q508.41858 349.575 507.76233 348.66876Q507.10608 347.7625 507.07483 345.95L507.07483 344.5125Q507.07483 342.6219 507.71545 341.71564Q508.3717 340.79376 509.76233 340.79376Q511.13733 340.79376 511.79358 341.6844Q512.4498 342.5594 512.46545 344.40314L512.46545 345.8094ZM511.3717 344.325Q511.3717 342.95 510.98108 342.325Q510.60608 341.6844 509.76233 341.6844Q508.9342 341.6844 508.54358 342.325Q508.16858 342.95 508.16858 344.2469L508.16858 345.98126Q508.16858 347.35626 508.5592 348.02814Q508.96545 348.6844 509.77795 348.6844Q510.57483 348.6844 510.96545 348.0594Q511.35608 347.4344 511.3717 346.10626L511.3717 344.325ZM514.2467 348.8875Q514.2467 348.60626 514.40295 348.41876Q514.5748 348.23126 514.90295 348.23126Q515.2467 348.23126 515.4186 348.41876Q515.59045 348.60626 515.59045 348.8875Q515.59045 349.15314 515.4186 349.34064Q515.2467 349.5125 514.90295 349.5125Q514.5748 349.5125 514.40295 349.34064Q514.2467 349.15314 514.2467 348.8875ZM522.2936 343.1375Q522.2936 343.77814 521.9498 344.27814Q521.6061 344.77814 521.0436 345.0594Q521.6998 345.34064 522.09045 345.90314Q522.4811 346.45 522.4811 347.15314Q522.4811 348.2469 521.7311 348.91876Q520.9967 349.575 519.77795 349.575Q518.5436 349.575 517.7936 348.91876Q517.0592 348.2469 517.0592 347.15314Q517.0592 346.45 517.4342 345.90314Q517.8092 345.34064 518.4811 345.0594Q517.9186 344.77814 517.59045 344.27814Q517.2623 343.77814 517.2623 343.1375Q517.2623 342.0594 517.9498 341.4344Q518.6373 340.79376 519.77795 340.79376Q520.90295 340.79376 521.59045 341.4344Q522.2936 342.0594 522.2936 343.1375ZM521.40295 347.1219Q521.40295 346.40314 520.9498 345.96564Q520.4967 345.5125 519.7623 345.5125Q519.02795 345.5125 518.5748 345.96564Q518.1373 346.40314 518.1373 347.1375Q518.1373 347.85626 518.5748 348.27814Q519.0123 348.6844 519.77795 348.6844Q520.52795 348.6844 520.96545 348.2625Q521.40295 347.84064 521.40295 347.1219ZM519.77795 341.6844Q519.1373 341.6844 518.7311 342.09064Q518.34045 342.48126 518.34045 343.16876Q518.34045 343.8094 518.7311 344.21564Q519.1217 344.6219 519.7623 344.6219Q520.4186 344.6219 520.8092 344.21564Q521.1998 343.8094 521.1998 343.16876Q521.1998 342.5125 520.7936 342.10626Q520.3873 341.6844 519.77795 341.6844ZM528.2623 345.7Q527.9342 346.10626 527.4498 346.35626Q526.9811 346.59064 526.4186 346.59064Q525.6842 346.59064 525.1373 346.23126Q524.59045 345.8719 524.2936 345.21564Q523.9967 344.54376 523.9967 343.7469Q523.9967 342.90314 524.3092 342.21564Q524.6373 341.52814 525.2311 341.16876Q525.84045 340.79376 526.6373 340.79376Q527.90295 340.79376 528.6217 341.7469Q529.3561 342.7 529.3561 344.325L529.3561 344.6375Q529.3561 347.1375 528.3717 348.27814Q527.3873 349.41876 525.40295 349.45L525.1842 349.45L525.1842 348.54376L525.4186 348.54376Q526.7623 348.5125 527.4811 347.84064Q528.1998 347.16876 528.2623 345.7ZM526.59045 345.7Q527.1373 345.7 527.59045 345.3719Q528.0592 345.02814 528.27795 344.54376L528.27795 344.10626Q528.27795 343.04376 527.8092 342.3719Q527.34045 341.7 526.6373 341.7Q525.9186 341.7 525.4811 342.2469Q525.0592 342.79376 525.0592 343.7Q525.0592 344.575 525.46545 345.1375Q525.8873 345.7 526.59045 345.7Z" fill-rule="nonzero"/><path fill="#757575" d="M543.98895 345.8094Q543.98895 347.71564 543.3327 348.65314Q542.6921 349.575 541.30145 349.575Q539.9421 349.575 539.2858 348.66876Q538.6296 347.7625 538.5983 345.95L538.5983 344.5125Q538.5983 342.6219 539.23895 341.71564Q539.8952 340.79376 541.2858 340.79376Q542.6608 340.79376 543.3171 341.6844Q543.9733 342.5594 543.98895 344.40314L543.98895 345.8094ZM542.8952 344.325Q542.8952 342.95 542.5046 342.325Q542.1296 341.6844 541.2858 341.6844Q540.4577 341.6844 540.0671 342.325Q539.6921 342.95 539.6921 344.2469L539.6921 345.98126Q539.6921 347.35626 540.0827 348.02814Q540.48895 348.6844 541.30145 348.6844Q542.0983 348.6844 542.48895 348.0594Q542.8796 347.4344 542.8952 346.10626L542.8952 344.325ZM545.7702 348.8875Q545.7702 348.60626 545.92645 348.41876Q546.0983 348.23126 546.42645 348.23126Q546.7702 348.23126 546.9421 348.41876Q547.11395 348.60626 547.11395 348.8875Q547.11395 349.15314 546.9421 349.34064Q546.7702 349.5125 546.42645 349.5125Q546.0983 349.5125 545.92645 349.34064Q545.7702 349.15314 545.7702 348.8875ZM552.7858 345.7Q552.4577 346.10626 551.9733 346.35626Q551.5046 346.59064 550.9421 346.59064Q550.2077 346.59064 549.6608 346.23126Q549.11395 345.8719 548.8171 345.21564Q548.5202 344.54376 548.5202 343.7469Q548.5202 342.90314 548.8327 342.21564Q549.1608 341.52814 549.7546 341.16876Q550.36395 340.79376 551.1608 340.79376Q552.42645 340.79376 553.1452 341.7469Q553.8796 342.7 553.8796 344.325L553.8796 344.6375Q553.8796 347.1375 552.8952 348.27814Q551.9108 349.41876 549.92645 349.45L549.7077 349.45L549.7077 348.54376L549.9421 348.54376Q551.2858 348.5125 552.0046 347.84064Q552.7233 347.16876 552.7858 345.7ZM551.11395 345.7Q551.6608 345.7 552.11395 345.3719Q552.5827 345.02814 552.80145 344.54376L552.80145 344.10626Q552.80145 343.04376 552.3327 342.3719Q551.86395 341.7 551.1608 341.7Q550.4421 341.7 550.0046 342.2469Q549.5827 342.79376 549.5827 343.7Q549.5827 344.575 549.98895 345.1375Q550.4108 345.7 551.11395 345.7ZM556.1296 345.16876L556.5671 340.91876L560.9421 340.91876L560.9421 341.91876L557.48895 341.91876L557.2233 344.2469Q557.86395 343.8719 558.6608 343.8719Q559.8171 343.8719 560.5046 344.65314Q561.1921 345.41876 561.1921 346.73126Q561.1921 348.04376 560.4733 348.8094Q559.7702 349.575 558.48895 349.575Q557.36395 349.575 556.6452 348.95Q555.92645 348.3094 555.8327 347.2L556.8483 347.2Q556.9577 347.9344 557.3796 348.3094Q557.80145 348.6844 558.48895 348.6844Q559.23895 348.6844 559.67645 348.16876Q560.11395 347.65314 560.11395 346.7469Q560.11395 345.8875 559.6452 345.3719Q559.17645 344.85626 558.3952 344.85626Q557.6921 344.85626 557.2858 345.15314L557.0046 345.3875L556.1296 345.16876Z" fill-rule="nonzero"/><path fill="#757575" d="M573.71564 349.45L572.6375 349.45L572.6375 342.23126L570.45 343.02814L570.45 342.04376L573.5594 340.8719L573.71564 340.8719L573.71564 349.45ZM577.29376 348.8875Q577.29376 348.60626 577.45 348.41876Q577.6219 348.23126 577.95 348.23126Q578.29376 348.23126 578.46564 348.41876Q578.6375 348.60626 578.6375 348.8875Q578.6375 349.15314 578.46564 349.34064Q578.29376 349.5125 577.95 349.5125Q577.6219 349.5125 577.45 349.34064Q577.29376 349.15314 577.29376 348.8875ZM585.5125 345.8094Q585.5125 347.71564 584.85626 348.65314Q584.21564 349.575 582.825 349.575Q581.46564 349.575 580.8094 348.66876Q580.15314 347.7625 580.1219 345.95L580.1219 344.5125Q580.1219 342.6219 580.7625 341.71564Q581.41876 340.79376 582.8094 340.79376Q584.1844 340.79376 584.84064 341.6844Q585.4969 342.5594 585.5125 344.40314L585.5125 345.8094ZM584.41876 344.325Q584.41876 342.95 584.02814 342.325Q583.65314 341.6844 582.8094 341.6844Q581.98126 341.6844 581.59064 342.325Q581.21564 342.95 581.21564 344.2469L581.21564 345.98126Q581.21564 347.35626 581.60626 348.02814Q582.0125 348.6844 582.825 348.6844Q583.6219 348.6844 584.0125 348.0594Q584.40314 347.4344 584.41876 346.10626L584.41876 344.325ZM590.71564 349.45L589.6375 349.45L589.6375 342.23126L587.45 343.02814L587.45 342.04376L590.5594 340.8719L590.71564 340.8719L590.71564 349.45Z" fill-rule="nonzero"/><path fill="#757575" d="M20.20625 37.55L20.20625 23.33125L24.221874 23.33125Q26.065624 23.33125 27.4875 24.159374Q28.925 24.971874 29.690624 26.4875Q30.471874 28.003124 30.4875 29.95625L30.4875 30.8625Q30.4875 32.878124 29.70625 34.39375Q28.925 35.909374 27.4875 36.721874Q26.05 37.534374 24.14375 37.55L20.20625 37.55ZM22.08125 24.878124L22.08125 36.01875L24.05 36.01875Q26.221874 36.01875 27.425 34.675Q28.628124 33.315624 28.628124 30.83125L28.628124 30.003124Q28.628124 27.58125 27.4875 26.2375Q26.346874 24.89375 24.26875 24.878124L22.08125 24.878124ZM34.878124 37.55L33.08125 37.55L33.08125 26.9875L34.878124 26.9875L34.878124 37.55ZM32.925 24.175Q32.925 23.7375 33.190624 23.440624Q33.471874 23.128124 33.9875 23.128124Q34.51875 23.128124 34.784374 23.440624Q35.065624 23.7375 35.065624 24.175Q35.065624 24.6125 34.784374 24.909374Q34.51875 25.20625 33.9875 25.20625Q33.471874 25.20625 33.190624 24.909374Q32.925 24.6125 32.925 24.175ZM44.065624 34.753124Q44.065624 34.01875 43.51875 33.6125Q42.971874 33.20625 41.596874 32.909374Q40.221874 32.6125 39.409374 32.20625Q38.6125 31.8 38.221874 31.2375Q37.846874 30.659374 37.846874 29.878124Q37.846874 28.58125 38.940624 27.690624Q40.034374 26.784374 41.753124 26.784374Q43.55 26.784374 44.659374 27.721874Q45.784374 28.64375 45.784374 30.08125L43.95625 30.08125Q43.95625 29.346874 43.33125 28.815624Q42.70625 28.26875 41.753124 28.26875Q40.753124 28.26875 40.190624 28.70625Q39.64375 29.128124 39.64375 29.83125Q39.64375 30.471874 40.159374 30.815624Q40.675 31.14375 42.034374 31.45625Q43.39375 31.753124 44.221874 32.175Q45.065624 32.58125 45.471874 33.175Q45.878124 33.76875 45.878124 34.6125Q45.878124 36.034374 44.7375 36.89375Q43.6125 37.753124 41.8 37.753124Q40.534374 37.753124 39.55 37.3Q38.58125 36.846874 38.01875 36.05Q37.471874 35.2375 37.471874 34.3L39.284374 34.3Q39.33125 35.20625 40.003124 35.7375Q40.690624 36.26875 41.8 36.26875Q42.83125 36.26875 43.440624 35.8625Q44.065624 35.440624 44.065624 34.753124ZM50.3625 24.425L50.3625 26.9875L52.346874 26.9875L52.346874 28.378124L50.3625 28.378124L50.3625 34.925Q50.3625 35.565624 50.628124 35.89375Q50.89375 36.20625 51.534374 36.20625Q51.846874 36.20625 52.39375 36.08125L52.39375 37.55Q51.675 37.753124 51.003124 37.753124Q49.8 37.753124 49.175 37.01875Q48.565624 36.284374 48.565624 34.925L48.565624 28.378124L46.64375 28.378124L46.64375 26.9875L48.565624 26.9875L48.565624 24.425L50.3625 24.425ZM60.01875 28.596874Q59.6125 28.534374 59.14375 28.534374Q57.3625 28.534374 56.721874 30.05L56.721874 37.55L54.925 37.55L54.925 26.9875L56.675 26.9875L56.70625 28.20625Q57.596874 26.784374 59.221874 26.784374Q59.753124 26.784374 60.01875 26.925L60.01875 28.596874ZM63.878124 37.55L62.08125 37.55L62.08125 26.9875L63.878124 26.9875L63.878124 37.55ZM61.925 24.175Q61.925 23.7375 62.190624 23.440624Q62.471874 23.128124 62.9875 23.128124Q63.51875 23.128124 63.784374 23.440624Q64.06563 23.7375 64.06563 24.175Q64.06563 24.6125 63.784374 24.909374Q63.51875 25.20625 62.9875 25.20625Q62.471874 25.20625 62.190624 24.909374Q61.925 24.6125 61.925 24.175ZM75.8625 32.378124Q75.8625 34.8 74.75313 36.284374Q73.64375 37.753124 71.76875 37.753124Q69.75313 37.753124 68.65938 36.33125L68.58125 37.55L66.925 37.55L66.925 22.55L68.72188 22.55L68.72188 28.14375Q69.81563 26.784374 71.7375 26.784374Q73.65938 26.784374 74.75313 28.2375Q75.8625 29.690624 75.8625 32.221874L75.8625 32.378124ZM74.05 32.175Q74.05 30.33125 73.33125 29.33125Q72.62813 28.315624 71.3 28.315624Q69.50313 28.315624 68.72188 29.9875L68.72188 34.55Q69.55 36.20625 71.31563 36.20625Q72.6125 36.20625 73.33125 35.20625Q74.05 34.20625 74.05 32.175ZM84.44063 36.503124Q83.39375 37.753124 81.34688 37.753124Q79.65938 37.753124 78.76875 36.76875Q77.89375 35.784374 77.87813 33.8625L77.87813 26.9875L79.69063 26.9875L79.69063 33.815624Q79.69063 36.20625 81.64375 36.20625Q83.70625 36.20625 84.39375 34.675L84.39375 26.9875L86.20625 26.9875L86.20625 37.55L84.4875 37.55L84.44063 36.503124ZM91.3625 24.425L91.3625 26.9875L93.34688 26.9875L93.34688 28.378124L91.3625 28.378124L91.3625 34.925Q91.3625 35.565624 91.62813 35.89375Q91.89375 36.20625 92.53438 36.20625Q92.84688 36.20625 93.39375 36.08125L93.39375 37.55Q92.675 37.753124 92.00313 37.753124Q90.8 37.753124 90.175 37.01875Q89.56563 36.284374 89.56563 34.925L89.56563 28.378124L87.64375 28.378124L87.64375 26.9875L89.56563 26.9875L89.56563 24.425L91.3625 24.425ZM97.87813 37.55L96.08125 37.55L96.08125 26.9875L97.87813 26.9875L97.87813 37.55ZM95.925 24.175Q95.925 23.7375 96.19063 23.440624Q96.47188 23.128124 96.9875 23.128124Q97.51875 23.128124 97.78438 23.440624Q98.06563 23.7375 98.06563 24.175Q98.06563 24.6125 97.78438 24.909374Q97.51875 25.20625 96.9875 25.20625Q96.47188 25.20625 96.19063 24.909374Q95.925 24.6125 95.925 24.175ZM100.44063 32.175Q100.44063 30.6125 101.05 29.378124Q101.65938 28.128124 102.7375 27.45625Q103.83125 26.784374 105.2375 26.784374Q107.39375 26.784374 108.72188 28.284374Q110.06563 29.76875 110.06563 32.253124L110.06563 32.378124Q110.06563 33.925 109.47188 35.159374Q108.87813 36.378124 107.76875 37.065624Q106.675 37.753124 105.25313 37.753124Q103.1125 37.753124 101.76875 36.253124Q100.44063 34.753124 100.44063 32.3L100.44063 32.175ZM102.25313 32.378124Q102.25313 34.14375 103.06563 35.20625Q103.89375 36.26875 105.25313 36.26875Q106.62813 36.26875 107.44063 35.190624Q108.25313 34.1125 108.25313 32.175Q108.25313 30.425 107.425 29.346874Q106.59688 28.26875 105.2375 28.26875Q103.89375 28.26875 103.06563 29.33125Q102.25313 30.39375 102.25313 32.378124ZM113.62813 26.9875L113.69063 28.315624Q114.89375 26.784374 116.84688 26.784374Q120.20625 26.784374 120.22188 30.565624L120.22188 37.55L118.425 37.55L118.425 30.55Q118.40938 29.409374 117.89375 28.8625Q117.39375 28.315624 116.3 28.315624Q115.425 28.315624 114.75313 28.784374Q114.09688 29.253124 113.72188 30.01875L113.72188 37.55L111.925 37.55L111.925 26.9875L113.62813 26.9875ZM127.44063 32.175Q127.44063 30.6125 128.05 29.378124Q128.65938 28.128124 129.7375 27.45625Q130.83125 26.784374 132.2375 26.784374Q134.39375 26.784374 135.72188 28.284374Q137.06563 29.76875 137.06563 32.253124L137.06563 32.378124Q137.06563 33.925 136.47188 35.159374Q135.87813 36.378124 134.76875 37.065624Q133.675 37.753124 132.25313 37.753124Q130.1125 37.753124 128.76875 36.253124Q127.44063 34.753124 127.44063 32.3L127.44063 32.175ZM129.25313 32.378124Q129.25313 34.14375 130.06563 35.20625Q130.89375 36.26875 132.25313 36.26875Q133.62813 36.26875 134.44063 35.190624Q135.25313 34.1125 135.25313 32.175Q135.25313 30.425 134.425 29.346874Q133.59688 28.26875 132.2375 28.26875Q130.89375 28.26875 130.06563 29.33125Q129.25313 30.39375 129.25313 32.378124ZM139.8 37.55L139.8 28.378124L138.14375 28.378124L138.14375 26.9875L139.8 26.9875L139.8 25.89375Q139.8 24.20625 140.70625 23.284374Q141.62813 22.346874 143.28438 22.346874Q143.90938 22.346874 144.51875 22.503124L144.425 23.971874Q143.97188 23.89375 143.45625 23.89375Q142.56563 23.89375 142.08125 24.409374Q141.6125 24.909374 141.6125 25.8625L141.6125 26.9875L143.8625 26.9875L143.8625 28.378124L141.6125 28.378124L141.6125 37.55L139.8 37.55ZM162.14375 30.89375Q162.14375 32.9875 161.44063 34.55Q160.7375 36.096874 159.44063 36.925Q158.15938 37.753124 156.44063 37.753124Q154.75313 37.753124 153.45625 36.925Q152.15938 36.096874 151.44063 34.565624Q150.72188 33.034374 150.70625 31.01875L150.70625 30.003124Q150.70625 27.95625 151.40938 26.378124Q152.12813 24.8 153.425 23.971874Q154.7375 23.128124 156.40938 23.128124Q158.12813 23.128124 159.425 23.95625Q160.7375 24.784374 161.44063 26.3625Q162.14375 27.925 162.14375 30.003124L162.14375 30.89375ZM160.26875 29.9875Q160.26875 27.45625 159.25313 26.1125Q158.2375 24.753124 156.40938 24.753124Q154.64375 24.753124 153.6125 26.1125Q152.59688 27.45625 152.56563 29.846874L152.56563 30.89375Q152.56563 33.346874 153.59688 34.753124Q154.62813 36.159374 156.44063 36.159374Q158.25313 36.159374 159.2375 34.83125Q160.2375 33.503124 160.26875 31.034374L160.26875 29.9875ZM168.40938 35.096874L171.01875 26.9875L172.8625 26.9875L169.08125 37.55L167.70625 37.55L163.87813 26.9875L165.72188 26.9875L168.40938 35.096874ZM179.3 37.753124Q177.15938 37.753124 175.8 36.346874Q174.45625 34.925 174.45625 32.565624L174.45625 32.221874Q174.45625 30.659374 175.05 29.425Q175.65938 28.190624 176.7375 27.4875Q177.81563 26.784374 179.08125 26.784374Q181.14375 26.784374 182.28438 28.14375Q183.425 29.503124 183.425 32.034374L183.425 32.784374L176.26875 32.784374Q176.3 34.346874 177.175 35.315624Q178.05 36.26875 179.39375 36.26875Q180.3625 36.26875 181.01875 35.878124Q181.69063 35.4875 182.19063 34.846874L183.28438 35.70625Q181.95625 37.753124 179.3 37.753124ZM179.08125 28.26875Q177.9875 28.26875 177.2375 29.065624Q176.50313 29.8625 176.33125 31.3L181.6125 31.3L181.6125 31.159374Q181.53438 29.784374 180.8625 29.034374Q180.20625 28.26875 179.08125 28.26875ZM191.01875 28.596874Q190.6125 28.534374 190.14375 28.534374Q188.3625 28.534374 187.72188 30.05L187.72188 37.55L185.925 37.55L185.925 26.9875L187.675 26.9875L187.70625 28.20625Q188.59688 26.784374 190.22188 26.784374Q190.75313 26.784374 191.01875 26.925L191.01875 28.596874ZM199.44063 37.55Q199.28438 37.2375 199.19063 36.440624Q197.925 37.753124 196.175 37.753124Q194.6125 37.753124 193.6125 36.8625Q192.6125 35.971874 192.6125 34.6125Q192.6125 32.971874 193.8625 32.065624Q195.12813 31.14375 197.39375 31.14375L199.15938 31.14375L199.15938 30.315624Q199.15938 29.3625 198.58125 28.8Q198.01875 28.2375 196.925 28.2375Q195.95625 28.2375 195.3 28.7375Q194.64375 29.221874 194.64375 29.909374L192.83125 29.909374Q192.83125 29.128124 193.39375 28.39375Q193.95625 27.64375 194.90938 27.221874Q195.87813 26.784374 197.03438 26.784374Q198.8625 26.784374 199.89375 27.70625Q200.925 28.6125 200.97188 30.221874L200.97188 35.08125Q200.97188 36.534374 201.33125 37.39375L201.33125 37.55L199.44063 37.55ZM196.44063 36.175Q197.3 36.175 198.05 35.7375Q198.81563 35.3 199.15938 34.596874L199.15938 32.425L197.7375 32.425Q194.425 32.425 194.425 34.3625Q194.425 35.221874 194.9875 35.70625Q195.55 36.175 196.44063 36.175ZM205.87813 37.55L204.08125 37.55L204.08125 22.55L205.87813 22.55L205.87813 37.55ZM210.87813 37.55L209.08125 37.55L209.08125 22.55L210.87813 22.55L210.87813 37.55ZM221.08125 31.9875L221.08125 37.55L219.20625 37.55L219.20625 23.33125L224.44063 23.33125Q226.78438 23.33125 228.09688 24.51875Q229.425 25.70625 229.425 27.675Q229.425 29.753124 228.12813 30.878124Q226.83125 31.9875 224.425 31.9875L221.08125 31.9875ZM221.08125 30.45625L224.44063 30.45625Q225.95625 30.45625 226.75313 29.753124Q227.55 29.034374 227.55 27.690624Q227.55 26.425 226.75313 25.675Q225.95625 24.909374 224.55 24.878124L221.08125 24.878124L221.08125 30.45625ZM236.3 37.753124Q234.15938 37.753124 232.8 36.346874Q231.45625 34.925 231.45625 32.565624L231.45625 32.221874Q231.45625 30.659374 232.05 29.425Q232.65938 28.190624 233.7375 27.4875Q234.81563 26.784374 236.08125 26.784374Q238.14375 26.784374 239.28438 28.14375Q240.425 29.503124 240.425 32.034374L240.425 32.784374L233.26875 32.784374Q233.3 34.346874 234.175 35.315624Q235.05 36.26875 236.39375 36.26875Q237.3625 36.26875 238.01875 35.878124Q238.69063 35.4875 239.19063 34.846874L240.28438 35.70625Q238.95625 37.753124 236.3 37.753124ZM236.08125 28.26875Q234.9875 28.26875 234.2375 29.065624Q233.50313 29.8625 233.33125 31.3L238.6125 31.3L238.6125 31.159374Q238.53438 29.784374 237.8625 29.034374Q237.20625 28.26875 236.08125 28.26875ZM248.01875 28.596874Q247.6125 28.534374 247.14375 28.534374Q245.3625 28.534374 244.72188 30.05L244.72188 37.55L242.925 37.55L242.925 26.9875L244.675 26.9875L244.70625 28.20625Q245.59688 26.784374 247.22188 26.784374Q247.75313 26.784374 248.01875 26.925L248.01875 28.596874ZM250.8 37.55L250.8 28.378124L249.14375 28.378124L249.14375 26.9875L250.8 26.9875L250.8 25.89375Q250.8 24.20625 251.70625 23.284374Q252.62813 22.346874 254.28438 22.346874Q254.90938 22.346874 255.51875 22.503124L255.425 23.971874Q254.97188 23.89375 254.45625 23.89375Q253.56563 23.89375 253.08125 24.409374Q252.6125 24.909374 252.6125 25.8625L252.6125 26.9875L254.8625 26.9875L254.8625 28.378124L252.6125 28.378124L252.6125 37.55L250.8 37.55ZM256.4406 32.175Q256.4406 30.6125 257.05 29.378124Q257.65936 28.128124 258.7375 27.45625Q259.83124 26.784374 261.2375 26.784374Q263.39374 26.784374 264.72186 28.284374Q266.0656 29.76875 266.0656 32.253124L266.0656 32.378124Q266.0656 33.925 265.47186 35.159374Q264.8781 36.378124 263.76874 37.065624Q262.675 37.753124 261.2531 37.753124Q259.1125 37.753124 257.76874 36.253124Q256.4406 34.753124 256.4406 32.3L256.4406 32.175ZM258.2531 32.378124Q258.2531 34.14375 259.0656 35.20625Q259.89374 36.26875 261.2531 36.26875Q262.6281 36.26875 263.4406 35.190624Q264.2531 34.1125 264.2531 32.175Q264.2531 30.425 263.425 29.346874Q262.59686 28.26875 261.2375 28.26875Q259.89374 28.26875 259.0656 29.33125Q258.2531 30.39375 258.2531 32.378124ZM273.01874 28.596874Q272.6125 28.534374 272.14374 28.534374Q270.3625 28.534374 269.72186 30.05L269.72186 37.55L267.925 37.55L267.925 26.9875L269.675 26.9875L269.70624 28.20625Q270.59686 26.784374 272.22186 26.784374Q272.7531 26.784374 273.01874 26.925L273.01874 28.596874ZM276.6125 26.9875L276.65936 28.159374Q277.83124 26.784374 279.8 26.784374Q282.01874 26.784374 282.8156 28.4875Q283.34686 27.721874 284.1906 27.253124Q285.03436 26.784374 286.1906 26.784374Q289.65936 26.784374 289.72186 30.471874L289.72186 37.55L287.90936 37.55L287.90936 30.58125Q287.90936 29.440624 287.39374 28.878124Q286.8781 28.315624 285.65936 28.315624Q284.65936 28.315624 283.9875 28.925Q283.33124 29.51875 283.22186 30.534374L283.22186 37.55L281.40936 37.55L281.40936 30.628124Q281.40936 28.315624 279.14374 28.315624Q277.3625 28.315624 276.72186 29.83125L276.72186 37.55L274.90936 37.55L274.90936 26.9875L276.6125 26.9875ZM299.4406 37.55Q299.28436 37.2375 299.1906 36.440624Q297.925 37.753124 296.175 37.753124Q294.6125 37.753124 293.6125 36.8625Q292.6125 35.971874 292.6125 34.6125Q292.6125 32.971874 293.8625 32.065624Q295.1281 31.14375 297.39374 31.14375L299.15936 31.14375L299.15936 30.315624Q299.15936 29.3625 298.58124 28.8Q298.01874 28.2375 296.925 28.2375Q295.95624 28.2375 295.3 28.7375Q294.64374 29.221874 294.64374 29.909374L292.83124 29.909374Q292.83124 29.128124 293.39374 28.39375Q293.95624 27.64375 294.90936 27.221874Q295.8781 26.784374 297.03436 26.784374Q298.8625 26.784374 299.89374 27.70625Q300.925 28.6125 300.97186 30.221874L300.97186 35.08125Q300.97186 36.534374 301.33124 37.39375L301.33124 37.55L299.4406 37.55ZM296.4406 36.175Q297.3 36.175 298.05 35.7375Q298.8156 35.3 299.15936 34.596874L299.15936 32.425L297.7375 32.425Q294.425 32.425 294.425 34.3625Q294.425 35.221874 294.9875 35.70625Q295.55 36.175 296.4406 36.175ZM305.6281 26.9875L305.6906 28.315624Q306.89374 26.784374 308.84686 26.784374Q312.20624 26.784374 312.22186 30.565624L312.22186 37.55L310.425 37.55L310.425 30.55Q310.40936 29.409374 309.89374 28.8625Q309.39374 28.315624 308.3 28.315624Q307.425 28.315624 306.7531 28.784374Q306.09686 29.253124 305.72186 30.01875L305.72186 37.55L303.925 37.55L303.925 26.9875L305.6281 26.9875ZM319.15936 36.26875Q320.1281 36.26875 320.84686 35.690624Q321.5656 35.096874 321.64374 34.221874L323.3625 34.221874Q323.3 35.128124 322.72186 35.95625Q322.15936 36.76875 321.1906 37.26875Q320.2375 37.753124 319.15936 37.753124Q317.0031 37.753124 315.72186 36.315624Q314.45624 34.8625 314.45624 32.3625L314.45624 32.065624Q314.45624 30.51875 315.01874 29.315624Q315.58124 28.1125 316.64374 27.45625Q317.70624 26.784374 319.14374 26.784374Q320.925 26.784374 322.09686 27.846874Q323.28436 28.909374 323.3625 30.6125L321.64374 30.6125Q321.5656 29.596874 320.8625 28.940624Q320.175 28.26875 319.14374 28.26875Q317.76874 28.26875 317.0031 29.26875Q316.2531 30.253124 316.2531 32.128124L316.2531 32.471874Q316.2531 34.3 317.0031 35.284374Q317.7531 36.26875 319.15936 36.26875ZM329.3 37.753124Q327.15936 37.753124 325.8 36.346874Q324.45624 34.925 324.45624 32.565624L324.45624 32.221874Q324.45624 30.659374 325.05 29.425Q325.65936 28.190624 326.7375 27.4875Q327.8156 26.784374 329.08124 26.784374Q331.14374 26.784374 332.28436 28.14375Q333.425 29.503124 333.425 32.034374L333.425 32.784374L326.26874 32.784374Q326.3 34.346874 327.175 35.315624Q328.05 36.26875 329.39374 36.26875Q330.3625 36.26875 331.01874 35.878124Q331.6906 35.4875 332.1906 34.846874L333.28436 35.70625Q331.95624 37.753124 329.3 37.753124ZM329.08124 28.26875Q327.9875 28.26875 327.2375 29.065624Q326.5031 29.8625 326.33124 31.3L331.6125 31.3L331.6125 31.159374Q331.53436 29.784374 330.8625 29.034374Q330.20624 28.26875 329.08124 28.26875ZM345.39374 31.20625Q342.97186 30.51875 341.8781 29.51875Q340.78436 28.503124 340.78436 27.01875Q340.78436 25.33125 342.1281 24.2375Q343.47186 23.128124 345.6125 23.128124Q347.08124 23.128124 348.22186 23.70625Q349.3781 24.26875 350.0031 25.26875Q350.6281 26.253124 350.6281 27.440624L348.7531 27.440624Q348.7531 26.159374 347.925 25.425Q347.1125 24.675 345.6125 24.675Q344.22186 24.675 343.4406 25.284374Q342.675 25.89375 342.675 26.9875Q342.675 27.846874 343.40936 28.45625Q344.14374 29.05 345.90936 29.55Q347.6906 30.05 348.6906 30.659374Q349.6906 31.253124 350.175 32.05Q350.65936 32.846874 350.65936 33.940624Q350.65936 35.659374 349.3156 36.70625Q347.97186 37.753124 345.70624 37.753124Q344.2531 37.753124 342.97186 37.190624Q341.70624 36.628124 341.01874 35.659374Q340.33124 34.675 340.33124 33.425L342.22186 33.425Q342.22186 34.721874 343.175 35.471874Q344.1281 36.20625 345.70624 36.20625Q347.1906 36.20625 347.9875 35.6125Q348.78436 35.003124 348.78436 33.95625Q348.78436 32.909374 348.05 32.346874Q347.3156 31.76875 345.39374 31.20625ZM357.15936 36.26875Q358.1281 36.26875 358.84686 35.690624Q359.5656 35.096874 359.64374 34.221874L361.3625 34.221874Q361.3 35.128124 360.72186 35.95625Q360.15936 36.76875 359.1906 37.26875Q358.2375 37.753124 357.15936 37.753124Q355.0031 37.753124 353.72186 36.315624Q352.45624 34.8625 352.45624 32.3625L352.45624 32.065624Q352.45624 30.51875 353.01874 29.315624Q353.58124 28.1125 354.64374 27.45625Q355.70624 26.784374 357.14374 26.784374Q358.925 26.784374 360.09686 27.846874Q361.28436 28.909374 361.3625 30.6125L359.64374 30.6125Q359.5656 29.596874 358.8625 28.940624Q358.175 28.26875 357.14374 28.26875Q355.76874 28.26875 355.0031 29.26875Q354.2531 30.253124 354.2531 32.128124L354.2531 32.471874Q354.2531 34.3 355.0031 35.284374Q355.7531 36.26875 357.15936 36.26875ZM362.4406 32.175Q362.4406 30.6125 363.05 29.378124Q363.65936 28.128124 364.7375 27.45625Q365.83124 26.784374 367.2375 26.784374Q369.39374 26.784374 370.72186 28.284374Q372.0656 29.76875 372.0656 32.253124L372.0656 32.378124Q372.0656 33.925 371.47186 35.159374Q370.8781 36.378124 369.76874 37.065624Q368.675 37.753124 367.2531 37.753124Q365.1125 37.753124 363.76874 36.253124Q362.4406 34.753124 362.4406 32.3L362.4406 32.175ZM364.2531 32.378124Q364.2531 34.14375 365.0656 35.20625Q365.89374 36.26875 367.2531 36.26875Q368.6281 36.26875 369.4406 35.190624Q370.2531 34.1125 370.2531 32.175Q370.2531 30.425 369.425 29.346874Q368.59686 28.26875 367.2375 28.26875Q365.89374 28.26875 365.0656 29.33125Q364.2531 30.39375 364.2531 32.378124ZM379.01874 28.596874Q378.6125 28.534374 378.14374 28.534374Q376.3625 28.534374 375.72186 30.05L375.72186 37.55L373.925 37.55L373.925 26.9875L375.675 26.9875L375.70624 28.20625Q376.59686 26.784374 378.22186 26.784374Q378.7531 26.784374 379.01874 26.925L379.01874 28.596874ZM385.3 37.753124Q383.15936 37.753124 381.8 36.346874Q380.45624 34.925 380.45624 32.565624L380.45624 32.221874Q380.45624 30.659374 381.05 29.425Q381.65936 28.190624 382.7375 27.4875Q383.8156 26.784374 385.08124 26.784374Q387.14374 26.784374 388.28436 28.14375Q389.425 29.503124 389.425 32.034374L389.425 32.784374L382.26874 32.784374Q382.3 34.346874 383.175 35.315624Q384.05 36.26875 385.39374 36.26875Q386.3625 36.26875 387.01874 35.878124Q387.6906 35.4875 388.1906 34.846874L389.28436 35.70625Q387.95624 37.753124 385.3 37.753124ZM385.08124 28.26875Q383.9875 28.26875 383.2375 29.065624Q382.5031 29.8625 382.33124 31.3L387.6125 31.3L387.6125 31.159374Q387.53436 29.784374 386.8625 29.034374Q386.20624 28.26875 385.08124 28.26875ZM398.0656 34.753124Q398.0656 34.01875 397.51874 33.6125Q396.97186 33.20625 395.59686 32.909374Q394.22186 32.6125 393.40936 32.20625Q392.6125 31.8 392.22186 31.2375Q391.84686 30.659374 391.84686 29.878124Q391.84686 28.58125 392.9406 27.690624Q394.03436 26.784374 395.7531 26.784374Q397.55 26.784374 398.65936 27.721874Q399.78436 28.64375 399.78436 30.08125L397.95624 30.08125Q397.95624 29.346874 397.33124 28.815624Q396.70624 28.26875 395.7531 28.26875Q394.7531 28.26875 394.1906 28.70625Q393.64374 29.128124 393.64374 29.83125Q393.64374 30.471874 394.15936 30.815624Q394.675 31.14375 396.03436 31.45625Q397.39374 31.753124 398.22186 32.175Q399.0656 32.58125 399.47186 33.175Q399.8781 33.76875 399.8781 34.6125Q399.8781 36.034374 398.7375 36.89375Q397.6125 37.753124 395.8 37.753124Q394.53436 37.753124 393.55 37.3Q392.58124 36.846874 392.01874 36.05Q391.47186 35.2375 391.47186 34.3L393.28436 34.3Q393.33124 35.20625 394.0031 35.7375Q394.6906 36.26875 395.8 36.26875Q396.83124 36.26875 397.4406 35.8625Q398.0656 35.440624 398.0656 34.753124Z" fill-rule="nonzero"/></svg>